<svg width="10" height="8" viewBox="0 0 10 8" fill="none" xmlns="http://www.w3.org/2000/svg">
<path d="M4.16667 2.00087V0.300095C4.16667 0.179696 4.09125 0.0708978 3.97583 0.0236983C3.86083 -0.0231011 3.72625 0.000498575 3.63667 0.0848975L0.095 3.38486C0.0341667 3.44126 0 3.51886 0 3.60005C0 3.68125 0.0341667 3.75885 0.095 3.81525L3.63667 7.11521C3.72708 7.19921 3.86125 7.22281 3.97583 7.17641C4.09125 7.12921 4.16667 7.02041 4.16667 6.90001V5.20004H4.7575C6.68917 5.20004 8.47 6.20802 9.40458 7.8288L9.41333 7.844C9.46917 7.9416 9.575 8 9.6875 8C9.71333 8 9.73917 7.9972 9.765 7.9908C9.90333 7.9568 10 7.8372 10 7.7C10 4.59044 7.39292 2.05447 4.16667 2.00087Z" fill="#5C0086"/>
</svg>
