<svg width="10" height="10" viewBox="0 0 10 10" fill="none" xmlns="http://www.w3.org/2000/svg">
<path d="M5.91616 5.0073L9.80997 1.11338C10.0634 0.860094 10.0634 0.45057 9.80997 0.197287C9.55669 -0.0559966 9.14716 -0.0559966 8.89388 0.197287L4.99995 4.09121L1.10614 0.197287C0.852742 -0.0559966 0.443336 -0.0559966 0.190052 0.197287C-0.0633506 0.45057 -0.0633506 0.860094 0.190052 1.11338L4.08386 5.0073L0.190052 8.90122C-0.0633506 9.1545 -0.0633506 9.56402 0.190052 9.81731C0.316278 9.94365 0.482248 10.0071 0.648098 10.0071C0.813949 10.0071 0.979799 9.94365 1.10614 9.81731L4.99995 5.92339L8.89388 9.81731C9.02022 9.94365 9.18608 10.0071 9.35193 10.0071C9.51778 10.0071 9.68363 9.94365 9.80997 9.81731C10.0634 9.56402 10.0634 9.1545 9.80997 8.90122L5.91616 5.0073Z" fill="#CD2929"/>
</svg>
