<svg width="20" height="20" viewBox="0 0 20 20" fill="none" xmlns="http://www.w3.org/2000/svg">
<path d="M8.69422 17.2975C9.54698 17.2987 10.3492 16.9678 10.953 16.3656C11.5568 15.7635 11.8901 14.9623 11.8913 14.1095L11.9013 6.99226C11.9028 5.93605 11.0447 5.07555 9.98843 5.07403C8.9322 5.07257 8.0717 5.93071 8.07024 6.98695L8.06363 11.6735C8.06314 12.0261 8.34859 12.3124 8.70124 12.3129C9.05386 12.3134 9.34016 12.0279 9.34065 11.6753L9.34726 6.98875C9.34769 6.63664 9.63459 6.35061 9.98666 6.35108C10.3388 6.35157 10.6248 6.63844 10.6243 6.99049L10.6142 14.1076C10.6135 14.6193 10.4136 15.1 10.0512 15.4613C9.68894 15.8226 9.20763 16.0212 8.69599 16.0205C7.63976 16.0189 6.78164 15.1585 6.78307 14.1023L6.79409 6.34664C6.79663 4.58622 8.23086 3.15608 9.99116 3.15856C10.8439 3.15973 11.6452 3.49293 12.2473 4.09677C12.8495 4.70061 13.1804 5.50285 13.1792 6.35564L13.1684 14.1112C13.1679 14.4639 13.4533 14.7501 13.806 14.7506C14.1586 14.7511 14.4449 14.4657 14.4454 14.113L14.4563 6.35744C14.458 5.16352 13.9946 4.04044 13.1516 3.19504C12.3086 2.34964 11.1868 1.88314 9.99293 1.88152C8.76052 1.87978 7.6426 2.37928 6.83213 3.18764C6.02182 3.9958 5.51881 5.11267 5.51704 6.34481L5.50608 14.1005C5.50367 15.8609 6.93383 17.295 8.69422 17.2975Z" fill="#5081E9"/>
</svg>
