<svg width="14" height="13" viewBox="0 0 14 13" fill="none" xmlns="http://www.w3.org/2000/svg">
<path d="M13.0696 1.9482C12.4687 1.35875 11.6697 1.03415 10.8198 1.03415C9.96994 1.03415 9.17095 1.35875 8.56999 1.9482L3.55445 6.86763C2.81014 7.59768 2.81014 8.78558 3.55449 9.51571C4.29884 10.2458 5.50998 10.2457 6.25429 9.51563L9.55691 6.27626C9.80543 6.03251 9.80543 5.63734 9.55691 5.39358C9.30844 5.14983 8.90551 5.14983 8.65699 5.39358L5.35437 8.63295C5.10628 8.87637 4.70254 8.87633 4.45441 8.63299C4.20628 8.38961 4.20628 7.99361 4.45437 7.75027L9.4699 2.83093C9.8305 2.47728 10.3099 2.2825 10.8198 2.2825C11.3297 2.2825 11.8091 2.47728 12.1697 2.83093C12.914 3.56102 12.914 4.74891 12.1697 5.47901L6.70427 10.8397C5.46365 12.0564 3.44512 12.0564 2.20464 10.8397C1.60367 10.2503 1.27269 9.46657 1.27269 8.63299C1.27269 7.79941 1.60367 7.01568 2.20464 6.42623L7.66998 1.06548C7.9185 0.821727 7.9185 0.426553 7.66998 0.1828C7.42151 -0.0609124 7.01858 -0.060954 6.77006 0.1828L1.30472 5.54355C0.463343 6.36876 0 7.46595 0 8.63299C0 9.80004 0.463343 10.8972 1.30472 11.7224C2.1732 12.5742 3.31361 13.0001 4.45441 13C5.59495 12.9999 6.73587 12.574 7.60418 11.7224L13.0697 6.36165C14.3101 5.14484 14.3101 3.16501 13.0696 1.9482Z" fill="#5081E9"/>
</svg>
