<svg width="14" height="10" viewBox="0 0 14 10" fill="none" xmlns="http://www.w3.org/2000/svg">
<path d="M6.00492 4.82411C6.04984 4.74201 6.03102 4.66938 6.03111 4.5995C6.03256 3.37495 6.03256 2.15037 6.03111 0.925765C6.03062 0.716013 6.07744 0.523082 6.22013 0.352632C6.33917 0.206715 6.50739 0.0979851 6.70061 0.0420786C6.89384 -0.0138279 7.10211 -0.0140304 7.29547 0.0415002C7.48883 0.0970308 7.65733 0.205433 7.77672 0.351119C7.89611 0.496804 7.96026 0.672266 7.95992 0.852271C7.96556 1.69702 7.96188 2.5418 7.96201 3.38654C7.96201 3.79921 7.96094 4.21187 7.96361 4.62423C7.96401 4.68656 7.94084 4.75357 7.98828 4.81417C8.07416 4.80702 8.1106 4.74315 8.16004 4.69957C8.76808 4.16373 9.37482 3.62674 9.98025 3.0886C10.246 2.85279 10.5622 2.7525 10.9307 2.83129C11.6665 2.98874 11.9134 3.76274 11.3845 4.26014C11.0753 4.55097 10.7501 4.82816 10.431 5.11054C9.49484 5.93909 8.55817 6.76723 7.62102 7.59494C7.23636 7.93392 6.76555 7.94079 6.3847 7.60496C5.13208 6.50075 3.88262 5.39376 2.6363 4.28399C2.08028 3.78746 2.30729 3.0034 3.04866 2.83471C3.4252 2.74904 3.74741 2.85079 4.01908 3.09226C4.61407 3.62107 5.20999 4.14906 5.80685 4.67622C5.86352 4.72649 5.91216 4.78627 6.00492 4.82411Z" fill="#5081E9"/>
<path d="M6.98316 9.99779C5.29737 9.99779 3.61159 9.99749 1.92583 9.99688C1.04564 9.99527 0.324869 9.53175 0.0808103 8.82212C0.0279017 8.67198 0.000733123 8.51565 0.000211925 8.35837C0.00132148 7.84116 -0.00205158 7.32391 0.0022979 6.80671C0.00558219 6.41192 0.294467 6.14746 0.709265 6.14927C1.11381 6.15104 1.4113 6.42592 1.41636 6.81347C1.42169 7.21937 1.41583 7.62536 1.41836 8.03126C1.42125 8.49918 1.68399 8.73546 2.20872 8.73566C5.4028 8.73692 8.59685 8.73692 11.7909 8.73566C12.3046 8.73566 12.572 8.49785 12.5754 8.046C12.5787 7.62044 12.5659 7.19453 12.5806 6.76937C12.5977 6.27417 13.1753 5.99053 13.6486 6.23507C13.8626 6.34562 13.9869 6.51474 13.9894 6.73278C13.9959 7.30882 14.0123 7.88588 13.9836 8.4609C13.9402 9.32872 13.1064 9.99488 12.0848 9.99759C10.3842 10.0021 8.68362 9.99881 6.98307 9.99881L6.98316 9.99779Z" fill="#5081E9"/>
</svg>
