<svg width="10" height="10" viewBox="0 0 10 10" fill="none" xmlns="http://www.w3.org/2000/svg">
<g clip-path="url(#clip0)">
<path d="M0.585938 5C0.585938 2.56607 2.56607 0.585938 5 0.585938C5.91537 0.585938 6.78834 0.863496 7.52336 1.37865H6.95551C6.79371 1.37865 6.66254 1.50982 6.66254 1.67162C6.66254 1.83342 6.79371 1.96459 6.95551 1.96459H8.3284C8.4902 1.96459 8.62137 1.83342 8.62137 1.67162V0.29873C8.62137 0.136934 8.4902 0.00576172 8.3284 0.00576172C8.1666 0.00576172 8.03543 0.136934 8.03543 0.29873V1.02801C7.16772 0.361309 6.11152 0 5 0C3.66445 0 2.40885 0.520098 1.46445 1.46445C0.520098 2.40885 0 3.66445 0 5C0 5.87736 0.231856 6.74184 0.670508 7.49996C0.724805 7.59383 0.823203 7.64625 0.924355 7.64625C0.97416 7.64625 1.02463 7.63353 1.07082 7.60682C1.21086 7.52578 1.25869 7.34656 1.17768 7.2065C0.790566 6.53746 0.585938 5.77445 0.585938 5Z" fill="#BC6300"/>
<path d="M9.32975 2.50004C9.24869 2.35998 9.06943 2.31217 8.92943 2.39321C8.7894 2.47424 8.74156 2.65346 8.82258 2.79352C9.20969 3.46252 9.41432 4.22551 9.41432 5C9.41432 7.43393 7.43418 9.41406 5.00025 9.41406C4.08496 9.41406 3.21215 9.13643 2.47721 8.62135H3.04475C3.20654 8.62135 3.33772 8.49018 3.33772 8.32838C3.33772 8.16658 3.20654 8.03541 3.04475 8.03541H1.67188C1.51008 8.03541 1.37891 8.16658 1.37891 8.32838V9.70127C1.37891 9.86307 1.51008 9.99424 1.67188 9.99424C1.83367 9.99424 1.96484 9.86307 1.96484 9.70127V8.97127C2.83254 9.63819 3.88859 10 5.00025 10C6.3358 10 7.59141 9.4799 8.5358 8.53555C9.48016 7.59115 10.0003 6.33555 10.0003 5C10.0003 4.1226 9.7684 3.25813 9.32975 2.50004Z" fill="#BC6300"/>
</g>
<defs>
<clipPath id="clip0">
<rect width="10" height="10" fill="white"/>
</clipPath>
</defs>
</svg>
