<svg width="36" height="13" viewBox="0 0 36 13" fill="none" xmlns="http://www.w3.org/2000/svg">
<path d="M28.6367 2.6021C28.6367 6.06761 28.6367 9.51785 28.6367 12.9681C28.479 12.9986 26.0191 13.0139 25.7037 12.9834C25.6564 12.846 25.6564 0.189984 25.7037 0.0220517C25.7668 -0.00848142 25.8298 0.00678514 25.8929 0.00678514C27.4225 0.00678514 28.9363 -0.00848142 30.4658 0.00678514C31.5066 0.0220517 32.5158 0.235783 33.4146 0.770113C34.4711 1.41131 35.1176 2.34257 35.3384 3.53336C35.4803 4.26615 35.4645 5.01421 35.2753 5.74701C34.9757 6.92253 34.2503 7.79273 33.1623 8.37286C32.5473 8.70872 31.885 8.89192 31.207 8.99879C30.6708 9.07512 30.1347 9.09038 29.5828 9.09038C29.5513 9.09038 29.5197 9.09038 29.4882 9.05985C29.4882 8.23546 29.4882 7.3958 29.4882 6.55614C29.5355 6.51034 29.5986 6.54087 29.6459 6.54087C29.9612 6.54087 30.2608 6.55614 30.5762 6.51034C31.1754 6.41874 31.68 6.20501 32.0585 5.73174C32.295 5.44168 32.4054 5.10581 32.4369 4.73942C32.4527 4.40355 32.4369 4.08296 32.295 3.76236C32.0585 3.19749 31.6012 2.8769 31.0177 2.70897C30.7497 2.63263 30.4974 2.58683 30.2135 2.58683C29.6932 2.6021 29.1886 2.6021 28.6367 2.6021Z" fill="black"/>
<path d="M15.2962 12.9834C14.3028 12.9834 13.3409 12.9834 12.3633 12.9834C12.3633 12.9834 12.3475 12.9834 12.3475 12.9681L12.3317 12.9528C12.3317 12.9223 12.3317 12.8918 12.3317 12.8612C12.316 12.1284 12.3317 0.220517 12.3475 0.0373182C12.3948 -0.00848142 12.4421 0.00678513 12.4894 0.00678513C14.0505 0.00678513 15.5958 -0.00848142 17.157 0.00678513C17.9927 0.00678513 18.7969 0.159451 19.5538 0.510581C20.8468 1.09071 21.6668 2.06777 21.9664 3.41123C22.1556 4.25089 22.1399 5.09055 21.8876 5.93021C21.5407 7.05993 20.7995 7.88433 19.7272 8.43392C19.0492 8.78505 18.3081 8.96825 17.5512 9.05985C17.0939 9.10565 16.6208 9.12092 16.1635 9.10565C16.1162 8.96825 16.1004 6.86147 16.1478 6.5714C16.2424 6.55614 16.337 6.55614 16.4158 6.55614C16.7627 6.55614 17.0939 6.55614 17.425 6.4798C18.04 6.3424 18.5446 6.05234 18.86 5.48748C19.0492 5.15161 19.1123 4.78522 19.0807 4.40355C19.065 4.14402 19.0177 3.88449 18.8915 3.64022C18.6865 3.21276 18.3238 2.93796 17.8665 2.77003C17.5196 2.6479 17.157 2.58683 16.7943 2.58683C16.3212 2.58683 15.8481 2.58683 15.3751 2.58683C15.3435 2.58683 15.3278 2.58683 15.2805 2.6021C15.2962 6.06761 15.2962 9.51785 15.2962 12.9834Z" fill="black"/>
<path d="M8.7365 12.9838C5.83506 12.9838 2.93362 12.9838 0.047945 12.9838C0.000638922 12.8464 -0.0151298 0.556832 0.0164076 0.0377691C0.158326 0.00723596 2.57094 -0.00803059 2.94939 0.0225025C2.98092 0.0835687 2.96515 0.159901 2.96515 0.236234C2.96515 1.93082 2.96515 3.62541 2.96515 5.32C2.96515 6.92299 2.96515 8.54124 2.96515 10.1442C2.96515 10.2206 2.94939 10.2969 2.99669 10.3732C4.90471 10.3732 6.82849 10.3732 8.75227 10.3732C8.7365 11.2587 8.7365 12.1136 8.7365 12.9838Z" fill="black"/>
</svg>
