<svg width="36" height="12" viewBox="0 0 36 12" fill="none" xmlns="http://www.w3.org/2000/svg">
<path d="M27.252 4.78737C26.406 4.47789 26.142 4.29474 26.142 3.96C26.142 3.58737 26.436 3.36632 26.958 3.36632C27.384 3.36632 27.81 3.49263 28.128 3.62526L28.266 2.00842C27.876 1.89474 27.402 1.80632 26.886 1.80632C25.176 1.80632 24.078 2.82947 24.078 4.18105C24.066 5.04 24.612 5.85474 26.04 6.36632C26.844 6.65053 27.054 6.82737 27.054 7.19368C27.054 7.56632 26.784 7.8 26.136 7.8C25.506 7.8 24.69 7.50316 24.288 7.25053L23.91 8.86737C24.432 9.16421 25.23 9.37263 26.142 9.37263C28.122 9.37263 29.13 8.38105 29.13 7.02316C29.118 5.95579 28.572 5.26105 27.252 4.78737ZM32.442 7.53474C31.794 7.53474 31.596 7.13684 31.596 6.25895V0L29.496 0.505263V1.96421H28.698L28.554 3.62526H29.502V6.58737C29.502 7.61053 29.7 8.30526 30.096 8.74105C30.432 9.11368 31.008 9.36632 31.698 9.36632C32.304 9.36632 32.808 9.29053 33.09 9.17053L33.078 7.46526C32.922 7.49684 32.712 7.52842 32.442 7.53474ZM31.764 3.63158H33.078V1.96421H31.764V3.63158ZM7.95 5.72211C7.908 4.61053 7.872 3.26526 7.872 1.92H7.83C7.548 3.10105 7.164 4.42105 6.81 5.50105L5.694 9.11368H4.08L3.102 5.52632C2.802 4.44 2.49 3.12 2.274 1.91368H2.25C2.196 3.15789 2.154 4.59158 2.088 5.74737L1.926 9.25895H0L0.582 0.00631579H3.342L4.236 3.09474C4.518 4.16211 4.806 5.32421 5.01 6.40421H5.052C5.31 5.33684 5.622 4.10526 5.922 3.08211L6.9 0.00631579H9.606L10.11 9.25895H8.082L7.95 5.72211ZM19.308 6.31579C19.38 7.25053 20.25 7.69263 21.258 7.69263C21.99 7.69263 22.578 7.59158 23.166 7.39579L23.448 8.92421C22.746 9.22105 21.888 9.36632 20.952 9.36632C18.612 9.36632 17.274 7.94526 17.274 5.67158C17.274 3.83368 18.36 1.8 20.754 1.8C22.986 1.8 23.826 3.61895 23.826 5.41895C23.826 5.80421 23.784 6.14526 23.754 6.30947L19.308 6.31579ZM21.834 4.76842C21.834 4.21895 21.606 3.30316 20.622 3.30316C19.722 3.30316 19.356 4.16211 19.302 4.76842H21.834Z" fill="#0862AF"/>
<path d="M34.547 0.0126714L35.999 2.79793L34.547 5.59583H33.077L34.529 2.79793L33.071 0.0126714H34.547C34.547 0.00635562 34.547 0.00635562 34.547 0.0126714ZM16.577 12H10.673V10.459H16.577V12ZM12.407 6.30951C12.479 7.24425 13.349 7.68636 14.357 7.68636C15.089 7.68636 15.677 7.5853 16.265 7.38951L16.547 8.91793C15.845 9.21478 14.987 9.36004 14.051 9.36004C11.711 9.36004 10.373 7.93899 10.373 5.6653C10.373 3.82741 11.459 1.79372 13.853 1.79372C16.085 1.79372 16.925 3.61267 16.925 5.41267C16.925 5.79793 16.883 6.13899 16.853 6.3032H12.407V6.30951ZM14.933 4.76215C14.933 4.21267 14.705 3.29688 13.721 3.29688C12.821 3.29688 12.455 4.15583 12.395 4.76215H14.933Z" fill="#ED1C24"/>
</svg>
