<svg width="12" height="16" viewBox="0 0 12 16" fill="none" xmlns="http://www.w3.org/2000/svg">
<path fill-rule="evenodd" clip-rule="evenodd" d="M0.666016 8.1778V10.3126H2.37922C3.96646 10.3126 4.13333 10.2265 4.65138 9.14061C5.13955 8.1166 5.14632 7.84654 4.70583 7.00578C4.26072 6.15611 3.9935 6.04297 2.43365 6.04297H0.666016V8.1778Z" fill="#0862AF"/>
<path fill-rule="evenodd" clip-rule="evenodd" d="M3.15723 0.213916C3.15723 0.33489 4.03784 2.03955 5.11415 4.00253C6.19047 5.96515 7.07108 7.7641 7.07108 8C7.07108 8.2359 6.19047 10.0349 5.11415 11.9975C4.03784 13.9604 3.15723 15.6651 3.15723 15.7861C3.15723 15.9067 4.07769 16.0031 5.20311 15.9999L7.24899 15.9942L9.35428 12.1811C10.5121 10.0836 11.4592 8.2021 11.4592 8C11.4592 7.7979 10.5121 5.9164 9.35428 3.81893L7.24899 0.0057704L5.20311 7.7513e-05C4.07769 -0.00312473 3.15723 0.0932985 3.15723 0.213916Z" fill="#ED1C24"/>
</svg>
