<svg width="18" height="15" viewBox="0 0 18 15" fill="none" xmlns="http://www.w3.org/2000/svg">
<path d="M15.2223 4.55566H6.33343C5.3516 4.55566 4.55566 5.3516 4.55566 6.33343V11.6667C4.55566 12.6486 5.3516 13.4445 6.33343 13.4445H15.2223C16.2041 13.4445 17.0001 12.6486 17.0001 11.6667V6.33343C17.0001 5.3516 16.2041 4.55566 15.2223 4.55566Z" stroke="black" stroke-width="1.5" stroke-linecap="round" stroke-linejoin="round"/>
<path d="M10.7778 10.7778C11.7596 10.7778 12.5555 9.98189 12.5555 9.00006C12.5555 8.01822 11.7596 7.22229 10.7778 7.22229C9.79593 7.22229 9 8.01822 9 9.00006C9 9.98189 9.79593 10.7778 10.7778 10.7778Z" stroke="black" stroke-width="1.5" stroke-linecap="round" stroke-linejoin="round"/>
<path d="M13.4444 4.55554V2.77777C13.4444 2.30628 13.2571 1.85409 12.9237 1.5207C12.5903 1.1873 12.1381 1 11.6666 1H2.77777C2.30628 1 1.85409 1.1873 1.5207 1.5207C1.1873 1.85409 1 2.30628 1 2.77777V8.11108C1 8.58257 1.1873 9.03476 1.5207 9.36815C1.85409 9.70155 2.30628 9.88885 2.77777 9.88885H4.55554" stroke="black" stroke-width="1.5" stroke-linecap="round" stroke-linejoin="round"/>
</svg>
