<svg width="23" height="22" viewBox="0 0 23 22" fill="none" xmlns="http://www.w3.org/2000/svg">
<path fill-rule="evenodd" clip-rule="evenodd" d="M17.8624 6.45801C17.9592 6.45801 18.0561 6.45801 18.1529 6.55439C18.1529 6.55439 18.1529 6.55439 22.1221 10.5062C22.3157 10.699 22.3157 11.0845 22.1221 11.2773C22.1221 11.2773 22.1221 11.2773 18.1529 15.2291C18.0561 15.3255 17.9592 15.4219 17.8624 15.3255C17.7656 15.3255 17.7656 15.2291 17.7656 15.0363V6.65078C17.7656 6.55439 17.7656 6.45801 17.8624 6.45801Z" fill="#ED1C24"/>
<path fill-rule="evenodd" clip-rule="evenodd" d="M10.9876 0H11.278L11.5685 0.0963914C11.5685 0.0963914 11.5685 0.0963887 15.7313 4.14458C15.9249 4.33735 15.8281 4.53013 15.5377 4.53013C15.5377 4.53013 15.5377 4.53013 13.7951 4.53013C13.5047 4.53013 13.3111 4.7229 13.3111 5.01205C13.3111 5.01205 13.3111 5.01205 13.3111 8C13.3111 8.28916 13.1174 8.48193 12.7302 8.48193C12.7302 8.48193 12.7302 8.48193 9.72907 8.48193C9.43864 8.48193 9.14821 8.28916 9.14821 8C9.14821 8 9.14821 8 9.14821 5.01205C9.14821 4.7229 8.95459 4.53013 8.56735 4.53013H6.72795C6.43751 4.53013 6.34071 4.33735 6.53433 4.14458C6.53433 4.14458 6.53432 4.14458 10.6972 0.0963914L10.9876 0Z" fill="#ED1C24"/>
<path fill-rule="evenodd" clip-rule="evenodd" d="M4.50169 6.36133C4.5985 6.36133 4.59849 6.45771 4.59849 6.65048V15.1324C4.59849 15.3252 4.5985 15.3252 4.50169 15.4216C4.40488 15.4216 4.30806 15.4216 4.21125 15.3252C4.21125 15.3252 4.21125 15.3252 0.145216 11.277C-0.0484052 11.0842 -0.0484052 10.7951 0.145216 10.5059C0.145216 10.5059 0.145213 10.5059 4.21125 6.45771C4.30806 6.36133 4.40488 6.36133 4.50169 6.36133Z" fill="#ED1C24"/>
<path fill-rule="evenodd" clip-rule="evenodd" d="M9.632 13.1084C9.632 13.1084 9.632 13.1084 12.6331 13.1084C13.0204 13.1084 13.214 13.3012 13.214 13.5903C13.214 13.5903 13.214 13.5903 13.214 16.771C13.214 17.1566 13.4076 17.3494 13.698 17.3494H15.247C15.5374 17.3494 15.6342 17.5421 15.4406 17.7349C15.4406 17.7349 15.4406 17.7349 11.4714 21.7831C11.3746 21.8795 11.181 21.9759 11.0842 21.9759C10.8905 21.9759 10.7937 21.8795 10.6969 21.7831C10.6969 21.7831 10.6969 21.7831 6.72768 17.7349C6.53406 17.5421 6.63088 17.3494 6.92131 17.3494C6.92131 17.3494 6.92131 17.3494 8.66389 17.3494C8.95433 17.3494 9.24476 17.1566 9.24476 16.771C9.24476 16.771 9.24476 16.771 9.24476 13.5903C9.14794 13.3012 9.34157 13.1084 9.632 13.1084Z" fill="#ED1C24"/>
</svg>
