<svg width="50" height="12" viewBox="0 0 50 12" fill="none" xmlns="http://www.w3.org/2000/svg">
<path d="M50 0H0V12H50V0Z" fill="black"/>
<path d="M25.494 4.15531H23.5999V9.01848H22.188V4.15531H20.2896V2.98167H25.494V4.15531ZM28.459 2.98167H27.0477V9.01848H28.459V2.98167ZM43.9988 6.00007C44.0038 6.42198 43.9228 6.84062 43.7604 7.23155C43.5981 7.62249 43.3577 7.97787 43.0534 8.27695C42.4338 8.85212 41.6121 9.17278 40.7577 9.17278C39.9034 9.17278 39.0817 8.85212 38.4621 8.27695C38.1549 7.9795 37.9122 7.62459 37.7484 7.2334C37.5845 6.84221 37.5029 6.42276 37.5085 6.00007C37.4998 5.57838 37.5783 5.15932 37.7394 4.76805C37.9004 4.37678 38.1407 4.02138 38.4457 3.7232C39.0652 3.14778 39.887 2.82696 40.7414 2.82696C41.5958 2.82696 42.4175 3.14778 43.037 3.7232C43.3459 4.01977 43.5904 4.37434 43.7556 4.7656C43.9209 5.15687 44.0036 5.57676 43.9988 6.00007ZM38.9204 6.00007C38.9098 6.51329 39.1032 7.01051 39.4599 7.38711C39.788 7.72214 40.2389 7.91597 40.7132 7.92598C41.1875 7.93598 41.6464 7.76133 41.989 7.44046L42.0436 7.38711C42.3987 7.00984 42.5905 6.5127 42.5788 6.00007C42.5918 5.48563 42.3999 4.98636 42.0436 4.6077C41.8811 4.44175 41.6868 4.30872 41.4718 4.21622C41.2568 4.12372 41.0252 4.07357 40.7903 4.06861C40.5554 4.06366 40.3219 4.10401 40.103 4.18735C39.884 4.2707 39.6841 4.39541 39.5144 4.55435C39.4959 4.57142 39.4773 4.58956 39.4599 4.6077C39.1019 4.98564 38.9083 5.48502 38.9204 6.00007ZM19.5923 6.00007C19.5973 6.42198 19.5163 6.84062 19.354 7.23155C19.1916 7.62249 18.9513 7.97787 18.6469 8.27695C18.0272 8.85215 17.2054 9.17284 16.351 9.17284C15.4966 9.17284 14.6748 8.85215 14.0551 8.27695C13.748 7.97945 13.5054 7.62453 13.3417 7.23334C13.1779 6.84215 13.0964 6.42272 13.102 6.00007C13.0955 5.57729 13.1765 5.15759 13.3403 4.76628C13.5041 4.37496 13.7473 4.02014 14.0551 3.7232C14.6747 3.14775 15.4965 2.8269 16.351 2.8269C17.2055 2.8269 18.0274 3.14775 18.6469 3.7232C18.9529 4.0211 19.1943 4.37626 19.3568 4.76747C19.5192 5.15868 19.5993 5.5779 19.5923 6.00007ZM14.5139 6.00007C14.5033 6.51329 14.6967 7.01051 15.0534 7.38711C15.3816 7.72214 15.8324 7.91597 16.3067 7.92598C16.781 7.93598 17.2399 7.76133 17.5826 7.44046C17.6011 7.42285 17.6191 7.40525 17.6371 7.38711C17.9891 7.00849 18.1779 6.51156 18.1641 6.00007C18.1795 5.48672 17.9906 4.98755 17.6371 4.6077C17.4747 4.44175 17.2804 4.30872 17.0653 4.21622C16.8503 4.12372 16.6187 4.07357 16.3839 4.06861C16.149 4.06366 15.9154 4.10401 15.6965 4.18735C15.4776 4.2707 15.2776 4.39541 15.108 4.55435C15.0894 4.57142 15.0709 4.58956 15.0534 4.6077C14.6954 4.98564 14.5019 5.48502 14.5139 6.00007ZM10.2303 2.98167V6.74961L9.47964 5.736L8.31163 4.14731L8.06014 3.81015C7.98291 3.70831 7.90042 3.61038 7.81301 3.51674C7.62932 3.32013 7.40657 3.1622 7.15836 3.05262C6.79103 2.90161 6.38225 2.8766 5.99854 2.98167V9.01848H7.40985V5.25001L8.16052 6.26361L9.32852 7.8523L9.58002 8.18946C9.65623 8.29089 9.73876 8.38763 9.82715 8.47913C10.0105 8.67703 10.2333 8.83623 10.4818 8.94699C10.8493 9.09736 11.2578 9.12253 11.6416 9.01848V2.98167H10.2303ZM34.6368 2.98167V6.74961L33.8866 5.736L32.7181 4.14731L32.4666 3.81015C32.3894 3.70831 32.3069 3.61038 32.2195 3.51674C32.0312 3.31885 31.8033 3.16088 31.5501 3.05262C31.1869 2.90499 30.7838 2.88002 30.4044 2.98167V9.01848H31.8119V5.25001L32.5626 6.26361L33.7306 7.85017L33.9821 8.18732C34.0583 8.28889 34.1411 8.38564 34.2298 8.477C34.413 8.67506 34.6358 8.83429 34.8844 8.94486C35.2521 9.09526 35.6608 9.12044 36.0448 9.01634V2.98167H34.6368Z" fill="white"/>
</svg>
