<svg width="14" height="14" viewBox="0 0 14 14" fill="none" xmlns="http://www.w3.org/2000/svg">
<path d="M4.05957 3.24613C5.87554 1.87877 8.46536 2.24375 9.83272 4.05972C10.347 4.74269 10.6303 5.54995 10.6589 6.38776L10.3399 5.96408C10.249 5.84336 10.0774 5.81919 9.95669 5.91008C9.83597 6.00098 9.81179 6.17254 9.90269 6.29326L10.674 7.31758C10.7649 7.4383 10.9364 7.46248 11.0571 7.37158L12.0815 6.6003C12.2022 6.50941 12.2264 6.33785 12.1355 6.21713C12.0446 6.09641 11.873 6.07223 11.7523 6.16313L11.2082 6.57283C11.2181 5.55088 10.8943 4.55986 10.2699 3.73054C9.5196 2.73408 8.42616 2.08945 7.19101 1.91536C5.95586 1.74132 4.72686 2.05866 3.73039 2.80896C3.07578 3.30186 2.56105 3.9605 2.24184 4.71369C2.2023 4.80693 2.21847 4.9098 2.2753 4.98527C2.30328 5.02243 2.34112 5.05294 2.387 5.0724C2.52614 5.13136 2.68672 5.06636 2.74571 4.92723C3.02741 4.26254 3.48174 3.68121 4.05957 3.24613Z" fill="#FD7D23"/>
<path d="M10.838 8.36533C10.897 8.22617 10.832 8.06556 10.6929 8.00663C10.5537 7.94767 10.3931 8.01267 10.3342 8.1518C10.0525 8.81646 9.59817 9.39778 9.02031 9.83288C7.20434 11.2002 4.61452 10.8353 3.24716 9.0193C2.73295 8.33639 2.44976 7.5292 2.42118 6.69149L2.74002 7.11493C2.83092 7.23565 3.00248 7.25983 3.12319 7.16893C3.24391 7.07804 3.26809 6.90648 3.17719 6.78576L2.40592 5.76145C2.31503 5.64073 2.14347 5.61655 2.02275 5.70745L0.998425 6.47873C0.877707 6.56962 0.85353 6.74118 0.944426 6.8619C1.03532 6.98262 1.20688 7.00679 1.3276 6.9159L1.87226 6.50579C1.86213 7.52785 2.18546 8.51905 2.80998 9.34847C3.56028 10.3449 4.65372 10.9896 5.88887 11.1637C7.12402 11.3377 8.35303 11.0204 9.34949 10.2701C10.0041 9.77714 10.5189 9.11849 10.838 8.36533Z" fill="#5081E9"/>
</svg>
