<svg width="16" height="16" viewBox="0 0 16 16" fill="none" xmlns="http://www.w3.org/2000/svg">
<path d="M8.3426 0.000269115C8.39688 0.0628996 8.47621 0.0420228 8.54302 0.0545488C8.93968 0.142231 9.29041 0.321772 9.59938 0.576469C10.0294 0.931375 10.305 1.38649 10.4261 1.92511C10.5681 2.57647 10.472 3.1986 10.1213 3.77062C9.77057 4.34265 9.26118 4.71426 8.614 4.88545C8.41776 4.93555 8.21316 4.98148 8.00439 4.95643C8.00439 3.30298 8.00439 1.64954 8.00439 -0.00390625C8.11713 0.000269115 8.22986 0.000269115 8.3426 0.000269115Z" fill="#97DD3D"/>
<path d="M8.00019 0C8.00019 1.65345 8.00019 3.30689 8.00019 4.96034C7.63693 4.96034 7.29037 4.88936 6.9647 4.73487C6.23818 4.38831 5.76637 3.82464 5.58265 3.03967C5.43651 2.40084 5.52419 1.78288 5.8624 1.21503C6.10875 0.805846 6.44695 0.488518 6.87284 0.271399C7.10248 0.154489 7.34883 0.0709812 7.60353 0.0334029C7.6244 0.0292276 7.64111 0.0250522 7.64946 0C7.77054 0 7.88745 0 8.00019 0Z" fill="#97DD3D"/>
<path d="M13.5283 5.52835C14.1045 5.51165 14.6139 5.70371 15.0649 6.05862C15.5409 6.4344 15.8331 6.93127 15.9626 7.52418C15.9709 7.57011 15.9375 7.63274 16.0002 7.66196C16.0002 7.89996 16.0002 8.14213 16.0002 8.38013C15.9417 8.42606 15.9542 8.50121 15.9417 8.55967C15.7329 9.50748 14.9354 10.2799 13.9751 10.4428C13.8248 10.4678 13.6786 10.4803 13.5283 10.4762C13.5283 8.82689 13.5283 7.17762 13.5283 5.52835Z" fill="#FE4D4D"/>
<path d="M2.46777 5.53286C2.4803 5.51199 2.497 5.50781 2.52205 5.50781C3.26944 5.55374 3.9041 5.82932 4.39261 6.40969C4.69324 6.76877 4.87278 7.18631 4.94376 7.64977C5.01892 8.13829 4.94376 8.59758 4.74334 9.04017C4.52623 9.52033 4.17967 9.89194 3.72038 10.1592C3.44898 10.3178 3.15671 10.4139 2.85191 10.464C2.72665 10.4807 2.59721 10.5057 2.47195 10.4723C2.46777 8.82305 2.46777 7.17796 2.46777 5.53286Z" fill="#FEE04D"/>
<path d="M13.5282 5.5293C13.5282 7.17857 13.5282 8.82784 13.5282 10.4771C12.7975 10.4855 12.1879 10.2057 11.691 9.67543C11.332 9.29548 11.1274 8.83619 11.0606 8.31844C10.9687 7.62951 11.1483 7.01155 11.57 6.46875C11.9416 5.98859 12.4384 5.69214 13.0355 5.56688C13.1984 5.53347 13.3612 5.5293 13.5282 5.5293Z" fill="#FE4D4D"/>
<path d="M8 11.0405C8.31733 11.028 8.62213 11.0989 8.91858 11.2159C9.54906 11.4664 10 11.9131 10.2756 12.5269C10.3925 12.7858 10.4593 13.0572 10.4718 13.3453C10.4885 13.6501 10.4635 13.9507 10.3716 14.243C10.2714 14.5603 10.1211 14.8526 9.90815 15.1115C9.65762 15.4121 9.35282 15.6334 9.00209 15.7962C8.80585 15.8881 8.59708 15.9382 8.38413 15.9758C8.2547 15.9967 8.12944 16.0092 8 16.0008C8 14.3474 8 12.6939 8 11.0405Z" fill="#7ED7F5"/>
<path d="M8.00025 11.0394C8.00025 12.6929 8.00025 14.3463 8.00025 15.9998C7.68292 16.0123 7.37812 15.9371 7.08584 15.8286C6.67666 15.6783 6.34263 15.4152 6.07123 15.0854C5.79983 14.7513 5.62029 14.3672 5.55349 13.933C5.51591 13.695 5.51173 13.4528 5.53679 13.219C5.58272 12.8014 5.73303 12.4131 5.98355 12.0707C6.3134 11.6282 6.74347 11.3192 7.27374 11.1522C7.41987 11.1062 7.57019 11.0728 7.72467 11.0645C7.81653 11.0561 7.90839 11.0186 8.00025 11.0394Z" fill="#7ED7F5"/>
<path d="M2.4677 5.53203C2.4677 7.17713 2.4677 8.8264 2.4677 10.4715C1.80799 10.484 1.25267 10.2418 0.772503 9.79925C0.425947 9.47775 0.196302 9.08527 0.0793917 8.63015C5.97059e-05 8.317 -0.0249925 8.00385 0.0209365 7.68235C0.083567 7.22723 0.250582 6.81804 0.538682 6.45896C0.885237 6.0289 1.32783 5.73663 1.87062 5.59884C2.06687 5.54456 2.26311 5.51533 2.4677 5.53203Z" fill="#FEE04D"/>
<path d="M5.12747 3.20192C5.12329 3.39399 5.05649 3.5276 4.92288 3.61946C4.65565 3.80317 4.40931 4.01612 4.17966 4.24576C3.97507 4.45036 3.79135 4.67165 3.62851 4.90965C3.48237 5.13094 3.15252 5.21862 2.902 5.00568C2.75169 4.88042 2.71411 4.58397 2.83102 4.41278C2.9187 4.27917 3.01891 4.15391 3.11494 4.02864C3.33624 3.74472 3.60346 3.50255 3.86233 3.2562C4.03352 3.09336 4.22559 2.95558 4.42183 2.82196C4.58467 2.7134 4.75586 2.72593 4.92705 2.83031C5.07736 2.93052 5.11494 3.06413 5.12747 3.20192Z" fill="#DEE6F3"/>
<path d="M5.12741 12.7927C5.11488 12.9347 5.0773 13.0725 4.92699 13.1685C4.7558 13.2771 4.58461 13.2896 4.42177 13.181C4.20465 13.0349 3.99171 12.8804 3.80382 12.6967C3.66185 12.5589 3.52407 12.4169 3.3821 12.2791C3.17334 12.0787 3.00632 11.8407 2.83931 11.6069C2.69734 11.4023 2.75162 11.11 2.93534 10.9764C3.17334 10.8011 3.48231 10.8846 3.6201 11.085C3.80799 11.3564 4.01676 11.6111 4.25475 11.8407C4.45935 12.037 4.67647 12.2207 4.90611 12.3835C5.04807 12.4754 5.12323 12.6048 5.12741 12.7927Z" fill="#DEE6F3"/>
<path d="M10.8771 3.1785C10.8938 3.05324 10.9439 2.92381 11.0859 2.83195C11.2571 2.72339 11.4283 2.72339 11.5953 2.82777C11.7331 2.91546 11.8583 3.02402 11.9919 3.12422C12.2675 3.33717 12.5013 3.60022 12.7435 3.84656C12.9105 4.01775 13.0525 4.21817 13.1861 4.41859C13.3197 4.62318 13.2446 4.89875 13.0483 5.04072C12.8604 5.17433 12.5473 5.14092 12.3928 4.91963C12.2091 4.65241 12.0003 4.40189 11.7665 4.17224C11.5619 3.96765 11.3364 3.78811 11.0984 3.62109C10.9439 3.52088 10.873 3.3831 10.8771 3.1785Z" fill="#C7CFE0"/>
<path d="M10.8726 12.8183C10.8767 12.6137 10.9435 12.4801 11.0772 12.3841C11.3402 12.2004 11.5865 11.9958 11.812 11.7703C12.0208 11.5615 12.2087 11.3361 12.3757 11.0897C12.5218 10.8768 12.835 10.7849 13.0938 10.9895C13.2442 11.1106 13.2943 11.4112 13.1774 11.5824C13.0396 11.787 12.8934 11.9874 12.7222 12.167C12.5385 12.359 12.3506 12.5469 12.1586 12.7306C11.979 12.9018 11.7786 13.048 11.574 13.1816C11.407 13.2901 11.2316 13.2734 11.0688 13.1607C10.931 13.0688 10.8809 12.9352 10.8726 12.8183Z" fill="#C7CFE0"/>
</svg>
