<svg width="23" height="19" viewBox="0 0 23 19" fill="none" xmlns="http://www.w3.org/2000/svg">
<path d="M11.045 0.0145124C14.4107 0.0145124 17.7765 0.0336428 21.1419 7.8244e-05C21.9157 -0.00758773 22.225 0.549127 21.8295 1.19652C20.3508 3.6171 18.9259 6.07001 17.4817 8.51124C15.515 11.8358 13.5487 15.1604 11.5829 18.4852C11.5477 18.5448 11.5107 18.6033 11.4739 18.6619C11.3184 18.9094 11.0981 19.0399 10.8019 18.9894C10.5071 18.939 10.3344 18.7501 10.2747 18.4617C10.2051 18.1238 10.1376 17.7854 10.0706 17.4469C9.48372 14.4787 8.89894 11.5102 8.3163 8.54114C8.26314 8.23741 8.10142 7.96282 7.86076 7.76764C6.05671 6.2131 4.26373 4.64531 2.46629 3.0829C1.79433 2.49884 1.11903 1.91871 0.446792 1.33506C0.338221 1.2485 0.238167 1.15193 0.147974 1.04666C0.076092 0.962554 0.0281749 0.86094 0.00917778 0.752323C-0.00981937 0.643705 0.000793182 0.532027 0.0399179 0.42884C0.0790426 0.325652 0.145259 0.2347 0.231719 0.165391C0.318179 0.0960818 0.421743 0.0509315 0.531701 0.0346096C0.692656 0.0128431 0.855308 0.00602228 1.01754 0.0142361C4.35999 0.0132692 7.70246 0.013016 11.045 0.0134764V0.0145124ZM19.5434 2.52778L19.4709 2.46348L9.53045 8.07732C10.0843 10.9103 10.6194 13.7003 11.1952 16.4823L11.278 16.491L19.5434 2.52778ZM18.8553 1.35371C17.8446 1.21669 2.65805 1.2575 2.40478 1.34742L8.88538 6.98233L18.8553 1.35371Z" fill="#5081E9"/>
</svg>
