<svg width="80" height="70" viewBox="0 0 80 70" fill="none" xmlns="http://www.w3.org/2000/svg">
<path fill-rule="evenodd" clip-rule="evenodd" d="M42.9899 8.65051C41.6357 6.39751 38.3645 6.39751 37.0102 8.65051L7.48637 57.7682C6.09201 60.0879 7.766 63.0392 10.4762 63.0392H69.5238C72.234 63.0392 73.908 60.0879 72.5136 57.7682L42.9899 8.65051ZM31.0306 5.06922C35.0933 -1.68976 44.9069 -1.68972 48.9695 5.06922L78.4933 54.1869C82.6762 61.1462 77.6544 70 69.5238 70H10.4762C2.34565 70 -2.67633 61.1462 1.50678 54.1869L31.0306 5.06922ZM40.0001 21.2746C41.9258 21.2746 43.4867 22.8328 43.4867 24.755V38.6765C43.4867 40.5987 41.9258 42.1569 40.0001 42.1569C38.0744 42.1569 36.5134 40.5987 36.5134 38.6765V24.755C36.5134 22.8328 38.0744 21.2746 40.0001 21.2746ZM40.0001 45.6373C41.9258 45.6373 43.4867 47.1955 43.4867 49.1177V52.5981C43.4867 54.5203 41.9258 56.0784 40.0001 56.0784C38.0744 56.0784 36.5134 54.5203 36.5134 52.5981V49.1177C36.5134 47.1955 38.0744 45.6373 40.0001 45.6373Z" fill="#E5ECFC"/>
</svg>
