<svg width="20" height="23" viewBox="0 0 20 23" fill="none" xmlns="http://www.w3.org/2000/svg">
<path d="M19.9953 17.6734C19.9717 17.5888 19.9528 17.4996 19.934 17.4105C19.8915 17.2188 19.8443 17.0182 19.7783 16.831C19.1415 15.0525 17.8396 13.9471 15.9151 13.5459C15.8679 13.537 15.8255 13.5281 15.7736 13.5147L15.7547 13.5103V13.3275C15.7547 12.4583 15.7547 11.5847 15.7547 10.7155C15.7547 7.51066 15.7547 4.19884 15.7594 0.936046C15.7594 0.463566 15.5755 0.16938 15.1792 0.00445736L15.1604 0H0V19.764L0.00943396 19.7818C0.183962 20.1562 0.495283 20.33 0.990566 20.33H0.995283C2.83019 20.3256 4.69811 20.3256 6.50472 20.3256C7.74528 20.3256 8.98585 20.3256 10.2264 20.3211C10.2264 20.3211 10.2264 20.3211 10.2311 20.3211C10.3774 20.3211 10.434 20.3523 10.5047 20.4771C11.3396 21.8901 12.6132 22.7281 14.2877 22.9599C14.3066 22.9643 14.3302 22.9733 14.3585 22.9822C14.3726 22.9866 14.3915 22.9955 14.4057 23L14.4198 23.0045H15.533L15.5425 23C15.6085 22.9866 15.6745 22.9733 15.7406 22.9554C15.8726 22.9287 16 22.8975 16.1321 22.8707C18.1698 22.4072 19.6745 20.8382 19.9575 18.8769C19.9575 18.868 19.967 18.8547 19.9764 18.8413C19.9811 18.8279 19.9906 18.8145 19.9953 18.8056L20.0047 18.7878V17.6868L19.9953 17.6734ZM18.3962 18.244C18.3915 19.1043 18.0283 19.9155 17.3774 20.5306C16.7217 21.1457 15.8632 21.4845 14.9528 21.4845C14.9528 21.4845 14.9528 21.4845 14.9481 21.4845C14.0377 21.4845 13.1745 21.1413 12.5236 20.5262C11.8679 19.9066 11.5094 19.0909 11.5094 18.2262C11.5094 17.3659 11.8726 16.5502 12.533 15.9306C13.1887 15.3155 14.0472 14.9767 14.9528 14.9767C14.9575 14.9767 14.9623 14.9767 14.9623 14.9767C15.8774 14.9812 16.7406 15.3244 17.3915 15.9484C18.0424 16.568 18.4009 17.3837 18.3962 18.244ZM9.93396 18.8012H1.62264V1.53333H14.1368V13.5147C12.7925 13.7465 11.7075 14.3705 10.9151 15.3734C10.1226 16.363 9.79717 17.5174 9.93396 18.8012Z" fill="#5081E9"/>
<path d="M12.5283 4.2746H3.43399V5.49591H12.5283V4.2746Z" fill="#5081E9"/>
<path d="M12.5283 6.74396H3.43399V7.96528H12.5283V6.74396Z" fill="#5081E9"/>
<path d="M12.5283 9.21338H3.43399V10.4347H12.5283V9.21338Z" fill="#5081E9"/>
<path d="M12.5283 11.6783H3.43399V12.8997H12.5283V11.6783Z" fill="#5081E9"/>
<path d="M15.5991 16.4076H14.3066V17.6646H12.9764V18.8859H14.3066V20.1429H15.5991V18.8859H16.9292V17.6646H15.5991V16.4076Z" fill="#5081E9"/>
</svg>
