<svg width="11" height="11" viewBox="0 0 11 11" fill="none" xmlns="http://www.w3.org/2000/svg">
<g>
<path d="M1.6543 9.90826V10.6558C1.6543 10.8459 1.80838 11 1.99855 11H3.75465C3.94473 11 4.0989 10.8459 4.0989 10.6558V9.90826H1.6543Z" fill="#E8002C"/>
<path d="M6.9209 9.90826V10.6558C6.9209 10.8459 7.07498 11 7.26515 11H9.02125C9.21133 11 9.3655 10.8459 9.3655 10.6558V9.90826H6.9209Z" fill="#E8002C"/>
<path d="M1.6543 6.60553V9.21983H9.36501V6.60553H1.6543ZM6.17516 7.79791H4.84414C4.65405 7.79791 4.49989 7.64383 4.49989 7.45366C4.49989 7.26357 4.65405 7.10949 4.84414 7.10949H6.17516C6.36525 7.10949 6.51942 7.26357 6.51942 7.45366C6.51942 7.64383 6.36525 7.79791 6.17516 7.79791Z" fill="#E8002C"/>
<path d="M9.36501 5.91703V3.30273H1.6543V5.91703H9.36501ZM4.84414 3.80669H6.17516C6.36525 3.80669 6.51942 3.96086 6.51942 4.15095C6.51942 4.34103 6.36525 4.4952 6.17516 4.4952H4.84414C4.65405 4.4952 4.49989 4.34103 4.49989 4.15095C4.49989 3.96086 4.65405 3.80669 4.84414 3.80669Z" fill="#E8002C"/>
<path d="M9.36501 2.6143V0.344254C9.36501 0.154083 9.21092 0 9.02075 0H1.99855C1.80838 0 1.6543 0.154083 1.6543 0.344254V2.6143H9.36501ZM6.17516 1.19238H4.84414C4.65405 1.19238 4.49989 1.0383 4.49989 0.848213C4.49989 0.658043 4.65405 0.50396 4.84414 0.50396H6.17516C6.36525 0.50396 6.51942 0.658043 6.51942 0.848213C6.51942 1.0383 6.36525 1.19238 6.17516 1.19238Z" fill="#005FB1"/>
</g>
</svg>
