<svg width="12" height="7" viewBox="0 0 12 7" fill="none" xmlns="http://www.w3.org/2000/svg">
<path d="M0.191807 6.41495L0.584883 6.80585C0.708591 6.92793 0.873178 6.99518 1.04908 6.99518C1.22489 6.99518 1.38967 6.92793 1.51338 6.80585L5.99732 2.3773L10.4864 6.81076C10.6099 6.93284 10.7747 7 10.9505 7C11.1263 7 11.2912 6.93284 11.4148 6.81076L11.808 6.42227C12.064 6.16964 12.064 5.75811 11.808 5.50548L6.46318 0.207928C6.33966 0.0859461 6.17508 -9.86068e-07 5.99771 -1.00157e-06L5.99566 -1.00175e-06C5.81976 -1.01713e-06 5.65517 0.0860423 5.53165 0.207928L0.191807 5.49112C0.0680986 5.6131 0.00019523 5.78056 9.14275e-08 5.95419C7.62401e-08 6.12791 0.0680985 6.29306 0.191807 6.41495Z" fill="#6B6B6B"/>
</svg>
