<svg width="16" height="16" viewBox="0 0 16 16" fill="none" xmlns="http://www.w3.org/2000/svg">
<path d="M13.5425 7.4042C13.5452 7.33972 13.5346 7.27537 13.5113 7.2152C13.4879 7.15503 13.4524 7.10033 13.4069 7.05455C13.362 7.0111 13.3087 6.97737 13.2502 6.95547C13.1916 6.93358 13.1292 6.924 13.0668 6.92733C12.8876 6.93459 12.7034 6.93279 12.5247 6.93099C12.4647 6.93099 12.4041 6.93039 12.3435 6.92979C12.2356 6.49738 12.0659 6.0828 11.8396 5.69885L11.9591 5.57846C12.0916 5.44478 12.2245 5.31163 12.3579 5.17903C12.4037 5.13663 12.4405 5.08537 12.466 5.02836C12.4914 4.97135 12.5051 4.90976 12.5061 4.84732C12.5046 4.78342 12.4904 4.72046 12.4642 4.66215C12.438 4.60384 12.4004 4.55137 12.3537 4.50781C12.0754 4.23602 11.7916 3.95109 11.5097 3.66143C11.4679 3.61591 11.417 3.57964 11.3603 3.55494C11.3036 3.53025 11.2424 3.51766 11.1806 3.518C11.1187 3.51834 11.0577 3.53159 11.0013 3.55691C10.9449 3.58223 10.8944 3.61906 10.853 3.66503C10.7264 3.79819 10.5933 3.93076 10.4643 4.05912C10.4212 4.10163 10.378 4.14442 10.3348 4.18749C9.95854 3.96146 9.55165 3.79093 9.12669 3.68116V2.97263C9.12729 2.95464 9.12729 2.93598 9.12609 2.91805C9.1081 2.64932 8.93055 2.47656 8.67264 2.47656H8.66424C8.40032 2.48076 8.13161 2.48016 7.87195 2.47956C7.72979 2.47896 7.58802 2.47876 7.44662 2.47896C7.3884 2.47784 7.33041 2.48654 7.27508 2.5047C7.18937 2.53453 7.11563 2.59134 7.06492 2.6666C7.0142 2.74187 6.98924 2.83154 6.99377 2.92218C6.99257 3.1052 6.99257 3.28875 6.99317 3.47164V3.68098C6.56724 3.78893 6.15958 3.95914 5.78335 4.18611C5.73716 4.13926 5.69044 4.09308 5.64359 4.04689C5.51829 3.9229 5.38867 3.79435 5.26691 3.66497C5.22503 3.61948 5.17422 3.58311 5.11766 3.55813C5.06109 3.53316 4.99999 3.52011 4.93816 3.51981H4.93642C4.87492 3.52012 4.81412 3.53282 4.75764 3.55714C4.70116 3.58146 4.65015 3.61691 4.60766 3.66137C4.41392 3.86532 4.21005 4.06806 4.01265 4.26421C3.93047 4.34633 3.8477 4.42857 3.76553 4.51069L3.75713 4.51914C3.73862 4.53708 3.72119 4.55611 3.70495 4.57613C3.64631 4.64951 3.61353 4.74019 3.61169 4.8341C3.60985 4.92801 3.63904 5.01991 3.69475 5.09553C3.72296 5.13439 3.75425 5.17092 3.78832 5.20476C3.88969 5.30728 3.99172 5.40931 4.09308 5.51122L4.27956 5.69897C4.05081 6.08203 3.88001 6.49683 3.77272 6.92991L3.56339 6.93051C3.37745 6.93111 3.19151 6.93171 3.00557 6.92931C2.94998 6.92935 2.89496 6.94052 2.84375 6.96215C2.79254 6.98378 2.74618 7.01545 2.7074 7.05527C2.62656 7.13428 2.58042 7.24217 2.5791 7.3552C2.58144 7.65878 2.58084 7.96164 2.58084 8.26522L2.58024 8.62752C2.57992 8.64214 2.58054 8.65677 2.5821 8.67131C2.5871 8.75265 2.61641 8.83062 2.66624 8.89511C2.71606 8.9596 2.78411 9.00765 2.86155 9.03301C2.92482 9.05407 2.99102 9.06498 3.05769 9.06534C3.22504 9.06654 3.39244 9.06654 3.55973 9.06654C3.63237 9.06654 3.70369 9.066 3.77566 9.06654C3.82941 9.28184 3.89818 9.4931 3.98146 9.69878C4.06614 9.90486 4.1664 10.1042 4.28136 10.295L4.11756 10.4594C3.9904 10.5859 3.86384 10.7131 3.73788 10.8409C3.69787 10.8793 3.66592 10.9254 3.64387 10.9763C3.62183 11.0272 3.61013 11.082 3.60946 11.1375C3.60879 11.193 3.61916 11.248 3.63997 11.2995C3.66078 11.3509 3.69162 11.3977 3.73068 11.4371C4.00119 11.7143 4.29516 12.0124 4.62799 12.3489C4.67434 12.3953 4.73079 12.4304 4.79294 12.4515C4.87035 12.4791 4.95419 12.4835 5.03405 12.464C5.11392 12.4444 5.18629 12.4019 5.2422 12.3416C5.42098 12.1611 5.60035 11.9809 5.78029 11.8012C6.1573 12.0292 6.56598 12.2002 6.99305 12.3086V12.5162C6.99245 12.6962 6.99265 12.8765 6.99365 13.0573C6.99066 13.1188 7.00062 13.1802 7.02288 13.2375C7.04514 13.2949 7.07919 13.347 7.12284 13.3903C7.1665 13.4337 7.21877 13.4674 7.27628 13.4893C7.33379 13.5112 7.39526 13.5208 7.4567 13.5174C7.65164 13.518 7.84658 13.5182 8.04151 13.518C8.24669 13.518 8.45182 13.5178 8.65692 13.5174C8.76943 13.5248 8.88047 13.4884 8.96678 13.4159C9.0531 13.3433 9.10802 13.2402 9.12003 13.1281C9.12517 13.0925 9.12736 13.0566 9.12657 13.0207V12.3087C9.34332 12.2574 9.55479 12.1859 9.75823 12.0952C9.92258 12.022 10.0845 11.938 10.2404 11.8565C10.2747 11.8391 10.3083 11.8217 10.3424 11.8037L10.3969 11.8594C10.5193 11.9842 10.644 12.1113 10.7688 12.2373L10.7814 12.2499C10.8325 12.3045 10.888 12.3547 10.9475 12.3999C11.0149 12.45 11.0964 12.4773 11.1803 12.478C11.2642 12.4786 11.3461 12.4526 11.4142 12.4035C11.4639 12.3697 11.5101 12.3311 11.5522 12.2884C11.7214 12.1167 11.8893 11.9452 12.0578 11.7737L12.2636 11.5643C12.3038 11.5236 12.344 11.4821 12.3847 11.4419C12.4238 11.4038 12.4547 11.3581 12.4756 11.3077C12.4965 11.2573 12.507 11.2032 12.5065 11.1487C12.5069 11.0866 12.4942 11.0251 12.469 10.9683C12.4439 10.9115 12.407 10.8608 12.3607 10.8193C12.1856 10.6441 12.0107 10.4686 11.8359 10.2927C12.0645 9.91106 12.2353 9.49768 12.3428 9.066C12.4069 9.066 12.4711 9.066 12.5347 9.06534C12.7062 9.06481 12.8838 9.0636 13.0572 9.06774C13.1221 9.06962 13.1868 9.05848 13.2473 9.035C13.3079 9.01151 13.3631 8.97614 13.4098 8.93098C13.454 8.88577 13.4885 8.83204 13.5113 8.77307C13.5341 8.7141 13.5447 8.65111 13.5424 8.58793C13.5341 8.19246 13.5341 7.7941 13.5425 7.4042ZM12.6902 8.21639C12.644 8.21639 12.5984 8.21699 12.5522 8.21699C12.3783 8.21819 12.1983 8.21945 12.0232 8.21459C11.9188 8.20983 11.8162 8.24288 11.7342 8.30768C11.6522 8.37249 11.5964 8.46469 11.5769 8.56736C11.5367 8.74791 11.4917 8.94046 11.4348 9.12821C11.3401 9.429 11.2027 9.71463 11.0269 9.97638C10.9957 10.0238 10.9627 10.0741 10.9327 10.1269C10.8849 10.2034 10.8629 10.2931 10.8701 10.383C10.8772 10.4729 10.9131 10.5581 10.9724 10.626C10.9952 10.6536 11.0204 10.6812 11.0491 10.7106L11.4803 11.1418L11.1823 11.4507C11.1703 11.4387 11.1583 11.4261 11.1463 11.4142C11.0857 11.3524 11.0252 11.2906 10.9652 11.2283C10.8825 11.1437 10.7997 11.0586 10.7162 10.9745C10.6413 10.8937 10.5392 10.8435 10.4295 10.8334C10.3198 10.8233 10.2102 10.8542 10.1219 10.92C9.98551 11.0147 9.84415 11.102 9.69843 11.1815C9.40072 11.3403 9.08116 11.4541 8.75013 11.5192C8.73747 11.5216 8.72488 11.5246 8.71288 11.5276C8.69909 11.5306 8.68349 11.5342 8.67689 11.5348C8.43937 11.5492 8.26968 11.7381 8.26422 11.9943C8.26248 12.0675 8.26249 12.1406 8.26302 12.2144L8.26362 12.3104V12.3997C8.26362 12.4891 8.26362 12.5791 8.26302 12.6679H7.84376L7.84316 12.5474C7.84316 12.3578 7.84262 12.1616 7.84436 11.9691C7.84587 11.9058 7.83312 11.8429 7.80706 11.7852C7.781 11.7274 7.7423 11.6763 7.6938 11.6355C7.62942 11.5815 7.55062 11.5475 7.46714 11.5378C7.10366 11.4772 6.7524 11.358 6.427 11.1851C6.34423 11.1413 6.26452 11.0909 6.17988 11.0375C6.1319 11.0069 6.08391 10.9769 6.03539 10.9475C6.02513 10.9415 6.01494 10.935 6.00414 10.9278C5.95007 10.8903 5.89033 10.8617 5.82719 10.8432C5.75242 10.8241 5.67385 10.8257 5.5999 10.8478C5.52595 10.8698 5.45938 10.9116 5.40733 10.9686C5.30536 11.0724 5.20339 11.1749 5.10082 11.2774C5.04444 11.3338 4.98746 11.3903 4.93168 11.4473L4.63723 11.1437L4.79972 10.9812C4.89689 10.8845 4.99346 10.7877 5.08943 10.6908C5.14192 10.6446 5.18335 10.5872 5.21065 10.5228C5.23796 10.4584 5.25044 10.3887 5.24718 10.3189C5.23833 10.2343 5.20843 10.1532 5.16021 10.0832C5.13321 10.0376 5.10568 9.99258 5.07803 9.94699C5.00186 9.82217 4.92934 9.70406 4.86636 9.58043C4.71841 9.28806 4.61471 8.97532 4.55866 8.65247C4.55006 8.60357 4.53822 8.5553 4.52321 8.50797C4.4987 8.4231 4.44697 8.34865 4.37599 8.29607C4.30501 8.24349 4.21871 8.2157 4.13039 8.21699C3.95045 8.21579 3.7707 8.21559 3.59116 8.21639H3.43701V7.77988H4.09488C4.2015 7.78706 4.30685 7.75344 4.3896 7.68583C4.47235 7.61823 4.52631 7.52169 4.54054 7.41578C4.57876 7.20989 4.63107 7.00687 4.69709 6.80814C4.80341 6.50605 4.94792 6.2188 5.1271 5.95337L5.14449 5.92823C5.15289 5.91558 5.16135 5.90304 5.16974 5.89098C5.22859 5.80528 5.25516 5.70149 5.24472 5.59805C5.23429 5.49461 5.18754 5.39822 5.11276 5.32599C5.00479 5.21982 4.89857 5.11239 4.7918 5.00502C4.74382 4.95703 4.69649 4.90904 4.64851 4.86105L4.95261 4.55873L5.01205 4.61812C5.14155 4.74648 5.27531 4.87971 5.40427 5.01227C5.47657 5.09314 5.57638 5.14421 5.68427 5.15552C5.79215 5.16683 5.90038 5.13758 5.98788 5.07346C6.12944 4.97544 6.27642 4.88552 6.42814 4.80413C6.7473 4.63328 7.09241 4.51614 7.44962 4.45742C7.64402 4.42683 7.76812 4.33199 7.81791 4.17489C7.83499 4.11828 7.84348 4.05942 7.8431 4.00028C7.8443 3.81673 7.8437 3.63384 7.8437 3.45029V3.33152C7.96426 3.32786 8.137 3.32666 8.26296 3.32906V3.5312C8.26296 3.67217 8.26316 3.81275 8.26356 3.95295C8.25822 4.06521 8.28754 4.17639 8.34754 4.27141C8.40338 4.35775 8.4912 4.41839 8.59172 4.44002C8.62825 4.44782 8.66484 4.45502 8.70203 4.46216C8.78 4.47781 8.85384 4.49215 8.92635 4.51135C9.32042 4.61243 9.69443 4.77977 10.0324 5.00622L10.1536 5.08725C10.2373 5.14281 10.3378 5.16723 10.4376 5.15627C10.5375 5.14531 10.6303 5.09966 10.7 5.02727C10.7492 4.97622 10.7996 4.92644 10.8499 4.87611L11.1673 4.55873L11.4725 4.85865C11.442 4.89051 11.4108 4.9223 11.3796 4.95409C11.2626 5.07346 11.1415 5.19762 11.0185 5.31159C10.937 5.38832 10.8864 5.49212 10.876 5.60354C10.8656 5.71495 10.8962 5.82632 10.9621 5.91677C11.2621 6.3458 11.4663 6.83435 11.5608 7.34926L11.5614 7.3564C11.5629 7.36952 11.5651 7.38255 11.568 7.39544C11.6244 7.65398 11.7809 7.77988 12.0472 7.77988H12.6872C12.6914 7.90267 12.6932 8.08142 12.6902 8.21639Z" fill="#5081E9"/>
<path d="M8.55372 15.829C8.50043 15.8476 8.44452 15.8575 8.38811 15.8584L8.25315 15.8596C8.17584 15.8602 8.09666 15.8614 8.01743 15.8614C7.91426 15.8614 7.81049 15.8602 7.70738 15.8554C7.52918 15.8482 7.35583 15.8284 7.1507 15.8014C6.91078 15.7696 6.7099 15.7408 6.5065 15.7006C6.06804 15.6177 5.63916 15.4902 5.22651 15.3204C4.97459 15.2135 4.72867 15.1086 4.48754 14.9869C4.02002 14.748 3.57824 14.4618 3.16916 14.1327C2.83065 13.8598 2.51403 13.5608 2.22218 13.2384C1.91886 12.9068 1.64772 12.5471 1.41243 12.1642C1.26061 11.9262 1.12185 11.68 0.996766 11.4269C0.717972 10.8606 0.510068 10.2621 0.377762 9.64486L0.368105 9.59987C0.332116 9.42231 0.294328 9.23876 0.266137 9.05515C0.243884 8.91119 0.233088 8.76603 0.222291 8.62572L0.219292 8.58794C0.207896 8.43198 0.1929 8.22683 0.185103 8.01809C0.184402 7.96379 0.186805 7.90949 0.1923 7.85547C0.195299 7.82068 0.198299 7.78835 0.198299 7.75775C0.206295 7.52767 0.233988 7.29869 0.281072 7.07334C0.356006 6.70018 0.455614 6.33241 0.579238 5.97245C0.598432 5.91486 0.618286 5.85728 0.638619 5.80083C0.597398 5.8193 0.554651 5.83415 0.51086 5.84522C0.425274 5.8668 0.334956 5.85951 0.253943 5.82447C0.172929 5.78943 0.105756 5.72862 0.0628614 5.65147C0.0155497 5.57715 -0.00602736 5.48933 0.00145063 5.40154C0.00892862 5.31375 0.0450473 5.23085 0.104248 5.1656C0.152779 5.11402 0.209532 5.07084 0.272195 5.03783C0.465934 4.93712 0.660872 4.83815 0.855811 4.73911L1.08914 4.62041C1.12992 4.59941 1.16597 4.58076 1.2007 4.56102C1.25327 4.53105 1.31145 4.51223 1.37161 4.50572C1.43178 4.49922 1.49263 4.50518 1.55039 4.52323C1.60616 4.54047 1.65765 4.56931 1.70148 4.60786C1.74531 4.64641 1.78049 4.6938 1.80471 4.74691C1.8269 4.7949 1.84796 4.84349 1.86889 4.89213L1.99605 5.17946C2.08482 5.38032 2.17401 5.58105 2.26363 5.78164C2.29634 5.84394 2.31358 5.9132 2.31388 5.98357C2.31419 6.05394 2.29754 6.12335 2.26536 6.18593C2.22766 6.25703 2.17064 6.31604 2.10087 6.35615C2.03109 6.39626 1.95141 6.41585 1.871 6.41265C1.79058 6.40945 1.7127 6.3836 1.64634 6.33808C1.57997 6.29256 1.52781 6.22921 1.49587 6.15534C1.48087 6.12241 1.46642 6.08936 1.45142 6.05637C1.31071 6.45141 1.19728 6.85566 1.11193 7.26625C1.07534 7.44477 1.05288 7.62591 1.04475 7.80796C1.03875 7.94592 1.04355 8.08203 1.04901 8.22599C1.05015 8.27038 1.05195 8.31477 1.05321 8.35922C1.05959 8.49984 1.07361 8.64001 1.09519 8.7791L1.10359 8.84383C1.12698 9.02138 1.14918 9.181 1.18157 9.3405C1.266 9.77253 1.39319 10.1951 1.56125 10.602C1.73354 11.0221 1.94539 11.4248 2.19393 11.8048C2.37692 12.0862 2.58104 12.3533 2.80453 12.6038C2.83812 12.6409 2.87051 12.6782 2.9035 12.7159C2.97068 12.7934 3.03486 12.8671 3.10444 12.9331C3.25259 13.0752 3.44993 13.26 3.65986 13.4327C3.94003 13.6615 4.23789 13.8677 4.55064 14.0494C4.86978 14.2379 5.204 14.3996 5.54987 14.5329C5.83107 14.6459 6.1204 14.7376 6.41539 14.807C6.69856 14.8682 6.93489 14.9137 7.15916 14.9491C7.24787 14.9635 7.3391 14.9696 7.43507 14.9768C7.50345 14.9815 7.57423 14.9864 7.645 14.9941C7.84218 15.0123 8.04034 15.0177 8.23822 15.0103C8.2904 15.0097 8.34198 15.0085 8.39417 15.0085H8.39723C8.50542 15.0067 8.61028 15.046 8.69064 15.1185C8.77101 15.1909 8.82089 15.2912 8.83023 15.399C8.83571 15.4908 8.81188 15.5819 8.76217 15.6592C8.71246 15.7365 8.63946 15.796 8.55372 15.829Z" fill="#5081E9"/>
<path d="M14.9506 4.2497C14.9065 4.29888 14.8523 4.33803 14.7918 4.36452C14.7313 4.39101 14.6658 4.40422 14.5997 4.40326H14.5968C14.397 4.402 14.1972 4.402 13.9982 4.402L13.778 4.4014C13.745 4.4014 13.7127 4.402 13.6802 4.402C13.61 4.40266 13.5405 4.40266 13.4709 4.4008C13.3924 4.40352 13.3145 4.38562 13.245 4.34889C13.1756 4.31216 13.117 4.25788 13.075 4.19146C13.0368 4.12681 13.016 4.0533 13.0149 3.97819C13.0137 3.90308 13.0322 3.82897 13.0684 3.76317C13.1018 3.7 13.1518 3.6471 13.213 3.61012C13.2741 3.57314 13.3442 3.55348 13.4156 3.55323C13.5344 3.55083 13.6538 3.55083 13.7707 3.55143C13.739 3.5143 13.7077 3.47885 13.6754 3.44346C13.5122 3.26704 13.3497 3.09915 13.1931 2.94499C13.0786 2.83276 12.958 2.73024 12.8543 2.64507C12.6108 2.44117 12.3545 2.25302 12.0871 2.08175C11.7446 1.8661 11.3876 1.6743 11.0188 1.50771C10.7581 1.39019 10.491 1.28734 10.2188 1.19963C9.87339 1.08568 9.51931 1.00002 9.16004 0.943494C8.99149 0.917761 8.84094 0.899106 8.69879 0.886569C8.44438 0.859967 8.18857 0.849129 7.93283 0.854118C7.85671 0.857177 7.78048 0.863116 7.7007 0.869714C7.61853 0.876372 7.53335 0.88351 7.44698 0.886569C7.28414 0.893831 7.12211 0.913685 6.96233 0.945954C6.7494 0.986683 6.50828 1.03287 6.27675 1.08932C5.97662 1.16578 5.68252 1.26422 5.39683 1.38384C5.05084 1.52479 4.71787 1.6958 4.40174 1.8949C4.00313 2.14421 3.62934 2.43117 3.2855 2.75184C3.00853 3.02161 2.747 3.30679 2.50214 3.60601C2.4492 3.67597 2.3746 3.72644 2.28997 3.74955C2.20534 3.77266 2.11544 3.76712 2.03429 3.73378C1.9796 3.71484 1.92948 3.68468 1.88713 3.64523C1.84478 3.60578 1.81114 3.55791 1.78837 3.5047C1.75749 3.42794 1.74837 3.34415 1.76203 3.26255C1.77568 3.18095 1.81157 3.10469 1.86575 3.04216C1.89214 3.00983 1.91853 2.97678 1.94492 2.94445C2.0163 2.85567 2.09067 2.76389 2.16985 2.67626C2.29095 2.54189 2.43677 2.38353 2.59506 2.23058C2.89356 1.94277 3.21317 1.6777 3.55121 1.43758C3.84993 1.2275 4.16255 1.03792 4.48692 0.870134C5.0386 0.584506 5.62288 0.366834 6.22697 0.221885C6.47819 0.16074 6.73246 0.112906 6.98873 0.0785825C7.14708 0.0569282 7.30663 0.0419322 7.46138 0.027536L7.54595 0.019618C7.82395 -0.00171315 8.10299 -0.00628021 8.38155 0.00594165L8.48105 0.00828104C8.59114 0.0124632 8.7009 0.0228973 8.80981 0.0395328C8.86253 0.0467309 8.91532 0.053929 8.9681 0.0592676C9.32043 0.0988757 9.66944 0.163827 10.0124 0.253616C10.3094 0.327176 10.6013 0.419763 10.8864 0.530803C11.1863 0.645057 11.48 0.775002 11.7662 0.920101C12.2463 1.16647 12.7041 1.45407 13.1344 1.77967C13.5135 2.07004 13.8675 2.39188 14.1925 2.74176C14.1967 2.74662 14.2008 2.75082 14.2056 2.75556C14.2289 2.66374 14.2814 2.58196 14.3552 2.52257C14.429 2.46317 14.52 2.42936 14.6147 2.42624H14.6171C14.7228 2.43169 14.8232 2.47428 14.9006 2.5465C14.9779 2.61871 15.0273 2.71593 15.04 2.821C15.0423 2.84632 15.0431 2.87176 15.0424 2.89718V2.91457L15.043 3.17251C15.0436 3.37953 15.0442 3.58608 15.0448 3.79214C15.0448 3.82002 15.0464 3.84788 15.0496 3.87558C15.0612 3.94139 15.0584 4.00894 15.0413 4.07355C15.0242 4.13815 14.9933 4.19826 14.9506 4.2497Z" fill="#5081E9"/>
<path d="M15.9988 7.96932C15.9982 8.03465 15.997 8.10009 15.997 8.16541C15.9931 8.37951 15.9753 8.59312 15.9437 8.8049L15.9424 8.81624C15.913 9.05317 15.8714 9.28842 15.8177 9.52106C15.6005 10.4403 15.2204 11.3133 14.6955 12.0986C14.473 12.4428 14.2207 12.7667 13.9415 13.0668C13.8996 13.1106 13.8576 13.1544 13.8161 13.1981C13.668 13.3535 13.5156 13.5137 13.3561 13.6642C13.1199 13.8908 12.8665 14.0986 12.5979 14.2857L12.4995 14.3534C12.322 14.4758 12.1385 14.6018 11.9495 14.7169C11.6864 14.8787 11.4131 15.0234 11.1314 15.15C11.1542 15.1602 11.1764 15.1698 11.1985 15.1794C11.3 15.2229 11.3809 15.3036 11.4245 15.4049C11.4682 15.5063 11.4713 15.6205 11.4331 15.7241C11.4041 15.805 11.3508 15.8749 11.2804 15.9243C11.2101 15.9737 11.1262 16.0002 11.0403 16C10.9832 16 10.9268 15.9888 10.874 15.967C10.7823 15.9305 10.6923 15.8896 10.6054 15.8501L10.5735 15.8357C10.468 15.7883 10.3624 15.7405 10.2569 15.6924C10.1261 15.633 9.99508 15.5736 9.86396 15.5142C9.80952 15.4914 9.76014 15.458 9.71865 15.416C9.67717 15.374 9.6444 15.3242 9.62224 15.2695C9.59602 15.2048 9.58651 15.1346 9.59459 15.0653C9.60268 14.996 9.62809 14.9298 9.66849 14.8729C9.72427 14.7865 9.78065 14.7008 9.83703 14.615C9.97499 14.4038 10.1177 14.1855 10.2514 13.9678C10.2897 13.904 10.3438 13.8512 10.4084 13.8144C10.473 13.7777 10.546 13.7582 10.6204 13.7579H10.6234C10.6958 13.7583 10.7669 13.7772 10.83 13.8128C10.8931 13.8483 10.946 13.8994 10.9839 13.9611C11.0379 14.0448 11.0594 14.1453 11.0445 14.2437C11.3517 14.0885 11.6479 13.9123 11.9309 13.7164C12.1823 13.5443 12.4225 13.3564 12.6501 13.1538C12.6843 13.1226 12.7197 13.0914 12.7545 13.0608C12.8589 12.9678 12.9572 12.8802 13.049 12.7849C13.3624 12.4638 13.6489 12.1175 13.9055 11.7495C14.1435 11.4041 14.3523 11.0395 14.53 10.6596C14.6702 10.3538 14.7892 10.0387 14.8862 9.7166C14.9749 9.42016 15.042 9.11772 15.0871 8.81162C15.1089 8.66388 15.123 8.5151 15.1291 8.36588L15.1309 8.33049C15.1405 8.12474 15.1513 7.91246 15.1454 7.70785C15.1376 7.46432 15.1226 7.26397 15.0979 7.07562C15.0571 6.73994 14.9915 6.40773 14.9018 6.08168C14.8616 5.94138 14.8155 5.79862 14.771 5.66059C14.7458 5.58261 14.7206 5.50463 14.696 5.42665C14.6804 5.37773 14.669 5.32756 14.6619 5.27669C14.6498 5.16896 14.6802 5.06075 14.7466 4.97507C14.813 4.8894 14.9103 4.833 15.0176 4.81787C15.113 4.80365 15.2104 4.82234 15.2938 4.87085C15.3772 4.91937 15.4416 4.99482 15.4764 5.0848C15.626 5.46554 15.7416 5.85877 15.8219 6.25989L15.8405 6.35407C15.8729 6.52202 15.9071 6.69532 15.9323 6.86933C15.946 6.96645 15.9538 7.06302 15.961 7.15666C15.9665 7.22984 15.9718 7.29822 15.9802 7.3672C15.9998 7.56728 16.006 7.76843 15.9988 7.96932Z" fill="#5081E9"/>
<path d="M10.3341 7.70344C10.2958 7.41863 10.206 7.14318 10.069 6.89059C9.8565 6.49145 9.52933 6.16511 9.12965 5.95364C8.79409 5.77533 8.41978 5.68242 8.03979 5.68311H8.0206C7.96882 5.68444 7.91716 5.68864 7.86585 5.69571C7.84552 5.69811 7.82446 5.70056 7.80347 5.70236C7.5038 5.73396 7.21352 5.82542 6.94986 5.97131C6.68619 6.1172 6.45451 6.31456 6.26855 6.55168C5.94198 6.95413 5.76294 7.45622 5.76117 7.9745C5.7563 8.21744 5.79281 8.45943 5.86914 8.69012C6.01989 9.17607 6.32636 9.59891 6.74126 9.8934C7.00856 10.083 7.3143 10.2114 7.63678 10.2695C7.76411 10.2946 7.89333 10.3088 8.02306 10.3121H8.02552C8.28749 10.313 8.54771 10.2694 8.79508 10.1832C9.3592 9.99269 9.82607 9.58847 10.0953 9.0574C10.3156 8.64253 10.3992 8.16864 10.3341 7.70344ZM9.50153 7.9919C9.50583 8.24525 9.44091 8.49498 9.31379 8.71417C9.24806 8.82864 9.16827 8.93443 9.07627 9.02909C8.95073 9.1611 8.79919 9.26565 8.63121 9.33615C8.44861 9.41383 8.25202 9.45325 8.05359 9.45197H8.05185C7.8549 9.45389 7.65977 9.41403 7.47935 9.33503C7.29892 9.25603 7.1373 9.13967 7.00512 8.99364C6.79868 8.77244 6.66711 8.49187 6.62904 8.19171C6.57621 7.81163 6.67528 7.42605 6.90477 7.11851C7.13425 6.81098 7.47568 6.60627 7.85505 6.54874C7.92692 6.53782 7.99949 6.53221 8.07218 6.53195C8.34914 6.5326 8.61945 6.61686 8.84774 6.77368C9.14058 6.96583 9.3529 7.2586 9.44455 7.59666C9.48117 7.72526 9.50033 7.8582 9.50153 7.9919Z" fill="#5081E9"/>
</svg>
