<svg width="16" height="16" viewBox="0 0 16 16" fill="none" xmlns="http://www.w3.org/2000/svg">
<path d="M0 5.15668V13.6874C0 14.4436 0.615219 15.0588 1.37141 15.0588H14.6286C15.3848 15.0588 16 14.4436 16 13.6875V5.15668H0ZM5.29816 12.9814C5.29816 13.1554 5.15712 13.2964 4.98319 13.2964H2.97197C2.798 13.2964 2.657 13.1553 2.657 12.9814V10.9006C2.657 10.7266 2.79803 10.5856 2.97197 10.5856H4.98319C5.15716 10.5856 5.29816 10.7266 5.29816 10.9006V12.9814ZM5.29816 9.02858C5.29816 9.20255 5.15712 9.34355 4.98319 9.34355H2.97197C2.798 9.34355 2.657 9.20252 2.657 9.02858V6.94774C2.657 6.77377 2.79803 6.63277 2.97197 6.63277H4.98319C5.15716 6.63277 5.29816 6.7738 5.29816 6.94774V9.02858ZM9.32059 12.9814C9.32059 13.1554 9.17956 13.2964 9.00562 13.2964H6.99441C6.82044 13.2964 6.67944 13.1553 6.67944 12.9814V10.9006C6.67944 10.7266 6.82047 10.5856 6.99441 10.5856H9.00562C9.17959 10.5856 9.32059 10.7266 9.32059 10.9006V12.9814ZM9.32059 9.02858C9.32059 9.20255 9.17956 9.34355 9.00562 9.34355H6.99441C6.82044 9.34355 6.67944 9.20252 6.67944 9.02858V6.94774C6.67944 6.77377 6.82047 6.63277 6.99441 6.63277H9.00562C9.17959 6.63277 9.32059 6.7738 9.32059 6.94774V9.02858ZM13.343 12.9814C13.343 13.1554 13.202 13.2964 13.0281 13.2964H11.0168C10.8429 13.2964 10.7019 13.1553 10.7019 12.9814V10.9006C10.7019 10.7266 10.8429 10.5856 11.0168 10.5856H13.0281C13.202 10.5856 13.343 10.7266 13.343 10.9006V12.9814ZM13.343 9.02858C13.343 9.20255 13.202 9.34355 13.0281 9.34355H11.0168C10.8429 9.34355 10.7019 9.20252 10.7019 9.02858V6.94774C10.7019 6.77377 10.8429 6.63277 11.0168 6.63277H13.0281C13.202 6.63277 13.343 6.7738 13.343 6.94774V9.02858Z" fill="#5081E9"/>
<path d="M14.6286 2.11776H13.3242V1.41363C13.3242 1.15269 13.1126 0.941162 12.8517 0.941162C12.5907 0.941162 12.3792 1.15269 12.3792 1.41363V2.11776H10.8983V1.41363C10.8983 1.15269 10.6868 0.941162 10.4259 0.941162C10.1649 0.941162 9.95341 1.15269 9.95341 1.41363V2.11776H8.4725V1.41363C8.4725 1.15269 8.26097 0.941162 8.00003 0.941162C7.73909 0.941162 7.52756 1.15269 7.52756 1.41363V2.11776H6.04666V1.41363C6.04666 1.15269 5.83512 0.941162 5.57419 0.941162C5.31325 0.941162 5.10172 1.15269 5.10172 1.41363V2.11776H3.62084V1.41363C3.62084 1.15269 3.40931 0.941162 3.14838 0.941162C2.88744 0.941162 2.67591 1.15269 2.67591 1.41363V2.11776H2.67584H1.37141C0.615219 2.11776 0 2.73297 0 3.48916V4.52676H16V3.48916C16 2.73297 15.3848 2.11776 14.6286 2.11776Z" fill="#5081E9"/>
</svg>
