<svg width="18" height="20" viewBox="0 0 18 20" fill="none" xmlns="http://www.w3.org/2000/svg">
<path fill-rule="evenodd" clip-rule="evenodd" d="M13.4109 0.76862L13.4119 1.51824C16.1665 1.73414 17.9862 3.6112 17.9891 6.48975L18 14.9155C18.0039 18.054 16.0322 19.985 12.8718 19.99L5.15189 20C2.0112 20.004 0.0148232 18.027 0.0108739 14.8796L1.32771e-05 6.55272C-0.00393603 3.65517 1.75153 1.78311 4.50618 1.53024L4.50519 0.780614C4.5042 0.340834 4.83002 0.00999952 5.26445 0.00999952C5.69887 0.00900002 6.02469 0.338835 6.02568 0.778615L6.02666 1.47826L11.8914 1.47027L11.8904 0.770619C11.8894 0.330839 12.2152 0.00100402 12.6497 4.52073e-06C13.0742 -0.000994979 13.4099 0.32884 13.4109 0.76862ZM16.4696 6.84158L1.52149 6.86157L1.5205 6.55072C1.51754 4.38281 2.58286 3.25138 4.50815 3.05847L4.50914 3.82809C4.50914 4.25887 4.83595 4.5977 5.27037 4.5967C5.70479 4.5967 6.02962 4.25687 6.02962 3.82609L6.02864 3.01749L11.8934 3.0095L11.8944 3.81909C11.8944 4.24888 12.2212 4.58871 12.6556 4.58771C13.0801 4.58771 13.4148 4.24688 13.4148 3.81709L13.4139 3.04748C15.349 3.21539 16.4272 4.34283 16.4696 6.49175V6.84158ZM9.0508 15.2881C8.7573 15.5804 8.75632 16.0553 9.0486 16.3488C9.34089 16.6423 9.81576 16.6432 10.1093 16.351L12.5225 13.9477C12.6464 13.8274 12.7288 13.6646 12.7464 13.4828C12.7488 13.4585 12.75 13.4341 12.75 13.4095C12.75 13.3764 12.7478 13.3434 12.7435 13.3109C12.7306 13.2134 12.6991 13.1218 12.6526 13.0399C12.6193 12.9811 12.5779 12.9266 12.5292 12.8781L10.1092 10.4685C9.81569 10.1763 9.34082 10.1773 9.04856 10.4708C8.7563 10.7643 8.75732 11.2392 9.05085 11.5315L10.184 12.6597H6.00001C5.5858 12.6597 5.25001 12.9955 5.25001 13.4097C5.25001 13.8239 5.5858 14.1597 6.00001 14.1597H10.1839L9.0508 15.2881Z" fill="#8C8C8C"/>
</svg>
