<svg width="18" height="24" viewBox="0 0 18 24" fill="none" xmlns="http://www.w3.org/2000/svg">
<path d="M8.98843 10.2858C6.02968 10.275 3.59968 7.98218 3.59968 5.18575C3.58843 2.29289 6.01843 -0.0106771 9.05593 3.72238e-05C11.9697 0.0107515 14.3997 2.32504 14.3997 5.10004C14.3997 7.98218 11.9922 10.2858 8.98843 10.2858Z" fill="#5081E9"/>
<path d="M9.90049 15.4285C11.1605 15.4285 12.3417 15.4177 13.5117 15.4392C14.0742 15.4499 14.3892 15.8142 14.3892 16.4035C14.4005 17.6677 14.3892 18.932 14.3892 20.207C14.3892 21.1177 14.3892 22.0285 14.3892 22.9392C14.3892 23.6999 14.0742 23.9999 13.2642 23.9999C10.418 23.9999 7.57174 23.9999 4.72549 23.9999C3.91549 23.9999 3.60049 23.6999 3.60049 22.9392C3.60049 20.7963 3.60049 18.6535 3.60049 16.5213C3.60049 15.7392 3.90424 15.4392 4.71424 15.4392C5.69299 15.4392 6.66049 15.4392 7.63924 15.4392C8.10049 15.4392 8.11174 15.4499 8.11174 15.8677C8.11174 16.7249 8.11174 17.582 8.11174 18.4392C8.11174 18.5785 8.11174 18.7285 8.12299 18.8677C8.16799 19.382 8.52799 19.7249 9.02299 19.7142C9.50674 19.7142 9.88924 19.3606 9.91174 18.857C9.93424 18.4285 9.91174 17.9999 9.91174 17.5713C9.90049 16.8856 9.90049 16.1892 9.90049 15.4285Z" fill="#5081E9"/>
<path d="M15.3004 20.5614C15.3004 19.4578 15.3004 18.4292 15.3004 17.39C15.3004 17.0364 15.3116 16.6721 15.3004 16.3185C15.2779 15.29 14.5354 14.5721 13.4441 14.5721C11.1379 14.5614 8.83164 14.5721 6.52539 14.5721C5.90664 14.5721 5.28789 14.5721 4.66914 14.5721C3.43164 14.5828 2.70039 15.2578 2.70039 16.4257C2.68914 17.6578 2.70039 18.89 2.70039 20.1221C2.70039 20.5614 2.68914 20.5614 2.25039 20.5721C1.87914 20.5721 1.49664 20.5721 1.12539 20.5721C0.315393 20.5614 -0.0108567 20.2614 0.0116433 19.5007C0.0903933 17.2185 0.934143 15.2257 2.66664 13.6614C5.44539 11.1328 8.74164 10.4364 12.3191 11.7757C15.8516 13.1043 17.7079 15.7293 18.0004 19.34C18.0116 19.4792 18.0116 19.6292 18.0004 19.7685C17.9554 20.2185 17.6516 20.54 17.1679 20.5614C16.5604 20.5828 15.9641 20.5614 15.3004 20.5614Z" fill="#5081E9"/>
</svg>
