<svg width="20" height="21" viewBox="0 0 20 21" fill="none" xmlns="http://www.w3.org/2000/svg">
<path d="M14.2004 20.004H5.90043C4.00043 20.004 2.70043 19.604 1.90043 18.704C1.10043 17.804 0.800444 16.304 1.10044 14.404L1.90043 8.20402C2.00043 7.30402 2.40044 6.40402 3.10044 5.80402C3.60044 5.30402 4.30044 5.10401 5.00044 5.10401H5.10044C5.10044 5.00401 5.10044 4.90402 5.10044 4.90402C5.20044 2.10402 7.50043 0.00401284 10.3004 0.104013C12.9004 0.204013 15.0004 2.30402 15.1004 4.90402C15.1004 5.00402 15.1004 5.10401 15.1004 5.10401H15.3004C16.0004 5.10401 16.6004 5.40402 17.1004 5.80402C17.7004 6.40402 18.2004 7.30402 18.3004 8.20402L19.1004 14.404C19.4004 15.904 19.1004 17.404 18.2004 18.604C17.0004 19.604 15.6004 20.104 14.2004 20.004ZM12.9004 8.30402C12.4004 8.30402 12.0004 8.70402 12.0004 9.20402C12.0004 9.70402 12.4004 10.104 12.9004 10.104C13.4004 10.104 13.8004 9.70402 13.8004 9.20402C13.8004 8.80402 13.4004 8.30402 12.9004 8.30402ZM7.10044 8.30402C6.60044 8.30402 6.20045 8.70402 6.20045 9.20402C6.20045 9.70402 6.60044 10.104 7.10044 10.104C7.60044 10.104 8.00044 9.70402 8.00044 9.20402C8.00044 8.80402 7.60044 8.30402 7.10044 8.30402ZM10.0004 1.30402C8.10044 1.30402 6.50044 2.90402 6.50044 4.80402C6.50044 4.90402 6.50044 5.00401 6.50044 5.00401H13.5004C13.5004 4.90401 13.5004 4.90402 13.5004 4.80402C13.4004 2.90402 11.9004 1.30402 10.0004 1.30402Z" fill="#5081E9"/>
</svg>
