<svg width="12" height="14" viewBox="0 0 12 14" fill="none" xmlns="http://www.w3.org/2000/svg">
<g>
<path d="M11.9974 3.81297C11.9974 3.39388 11.8207 3.05696 11.4944 2.80221C11.2715 2.62964 11.0159 2.54473 10.7386 2.54473C8.42238 2.54199 6.10883 2.53925 3.79257 2.54473C3.07213 2.54747 2.52841 3.109 2.52841 3.83763C2.52569 6.79595 2.52569 9.75154 2.52841 12.7099C2.52841 13.3454 2.93892 13.8466 3.55061 13.9754C3.57236 13.9808 3.59139 13.9918 3.61314 14H10.9126C11.1519 13.9343 11.3857 13.8548 11.5733 13.6795C11.8234 13.4467 11.9675 13.1618 11.9946 12.8222C11.9974 12.7948 11.9974 12.7674 11.9974 12.74C12.0001 9.76249 12.0001 6.78773 11.9974 3.81297ZM10.7223 12.7126H3.80616V3.83215H10.7223V12.7126Z" fill="#8C8C8C"/>
<path d="M8.84096 0.00445181V1.26996H1.27775V10.1751H0V10.0354C0 7.14278 0 4.2502 0 1.35761C0 0.798817 0.220208 0.374242 0.723154 0.130455C0.883552 0.051018 1.07657 0.007191 1.256 0.00445181C3.7517 -0.00376576 6.24739 -0.00102657 8.74309 -0.00102657C8.77571 -0.00102657 8.80562 0.00171262 8.84096 0.00445181Z" fill="#8C8C8C"/>
</g>
</svg>
