<svg width="9" height="10" viewBox="0 0 9 10" fill="none" xmlns="http://www.w3.org/2000/svg">
<path d="M8.89575 9.62979L8.10358 6.73154C8.08577 6.66637 8.04598 6.60934 7.99094 6.57014C6.73526 5.6759 7.14688 5.96902 6.07342 5.20461C6.48088 4.7859 6.71577 4.21984 6.71577 3.6273C6.71577 2.44605 6.72362 2.38141 6.68899 2.1659C6.6762 0.929336 5.73899 0 4.49868 0H4.40758C3.16729 0 2.23008 0.929336 2.21729 2.16592C2.18266 2.38143 2.19051 2.44602 2.19051 3.62732C2.19051 4.21982 2.4254 4.78588 2.83288 5.20463C1.47444 6.17197 2.26819 5.60672 0.915336 6.57016C0.860297 6.60936 0.820492 6.66639 0.80268 6.73156L0.0105119 9.6298C-0.0404061 9.81611 0.100082 10 0.29311 10H4.16018V6.90396L4.45315 6.71148L4.74612 6.90396V10H8.61319C8.80631 10 8.94665 9.81596 8.89575 9.62979ZM4.26182 0.949258H4.64446C4.80625 0.949258 4.93743 1.08043 4.93743 1.24223C4.93743 1.40402 4.80625 1.5352 4.64446 1.5352H4.26182C4.10002 1.5352 3.96885 1.40402 3.96885 1.24223C3.96885 1.08043 4.10002 0.949258 4.26182 0.949258ZM4.1602 6.20287L3.51577 6.62629L2.65614 6.0498L3.31438 5.58105C3.58344 5.73799 3.87407 5.83187 4.1602 5.86871V6.20287ZM4.45315 5.30156C3.52258 5.30156 2.77645 4.54635 2.77645 3.62732C2.77643 3.41752 2.7762 3.24389 2.776 3.0985L2.9335 3.32844C2.98811 3.40818 3.07854 3.45584 3.1752 3.45584H5.73108C5.82772 3.45584 5.91815 3.40818 5.97278 3.32844L6.13028 3.0985C6.13008 3.24387 6.12985 3.41752 6.12985 3.62732C6.12985 4.53813 5.392 5.30156 4.45315 5.30156ZM4.7461 6.20287V5.86869C5.04747 5.82994 5.33579 5.73045 5.5919 5.58104L6.25014 6.04979L5.39051 6.62627L4.7461 6.20287ZM6.94196 8.75182H5.91465C5.75286 8.75182 5.62168 8.62064 5.62168 8.45885C5.62168 8.29705 5.75286 8.16588 5.91465 8.16588H6.94196C7.10375 8.16588 7.23493 8.29705 7.23493 8.45885C7.23493 8.62064 7.10375 8.75182 6.94196 8.75182Z" fill="white"/>
</svg>
