<svg width="16" height="16" viewBox="0 0 16 16" fill="none" xmlns="http://www.w3.org/2000/svg">
<path d="M11.297 8.5625C9.23185 8.5625 7.55176 10.2307 7.55176 12.2812C7.55176 14.3318 9.23185 16 11.297 16C13.3795 16 15.0737 14.3318 15.0737 12.2812C15.0737 10.2307 13.3795 8.5625 11.297 8.5625ZM12.4465 11.8313L11.1876 13.3313C11.0973 13.4389 10.9641 13.5 10.8249 13.5C10.8068 13.5 10.7887 13.499 10.7705 13.4969C10.6122 13.4786 10.4739 13.3824 10.4026 13.2409L9.89907 12.2409C9.78247 12.0093 9.87701 11.7278 10.1102 11.612C10.3434 11.4962 10.627 11.5901 10.7436 11.8216L10.9243 12.1806L11.7211 11.2312C11.888 11.0323 12.1857 11.0055 12.386 11.1711C12.5863 11.3369 12.6134 11.6324 12.4465 11.8313Z" fill="#005FB1"/>
<path d="M11.0952 2.67041L9.17968 0.703562C9.17877 0.702625 9.17782 0.701656 9.17691 0.700719C8.73588 0.255406 8.1222 0 7.49329 0H1.41626C0.635335 0 0 0.630844 0 1.40625V13.5625C0 14.3379 0.635335 14.9687 1.41626 14.9687H7.47126C6.92858 14.209 6.60922 13.2815 6.60922 12.2812C6.60922 9.71378 8.71288 7.625 11.2986 7.625C11.4579 7.625 11.6154 7.63294 11.7707 7.64822V4.31187C11.7707 3.69409 11.5308 3.11125 11.0952 2.67041ZM5.00413 10.4687H2.48633C2.22561 10.4687 2.01424 10.2589 2.01424 10C2.01424 9.74112 2.22561 9.53125 2.48633 9.53125H5.00413C5.26485 9.53125 5.47621 9.74112 5.47621 10C5.47621 10.2589 5.26485 10.4687 5.00413 10.4687ZM5.00413 7.96875H2.48633C2.22561 7.96875 2.01424 7.75887 2.01424 7.5C2.01424 7.24112 2.22561 7.03125 2.48633 7.03125H5.00413C5.26485 7.03125 5.47621 7.24112 5.47621 7.5C5.47621 7.75887 5.26485 7.96875 5.00413 7.96875ZM5.00413 5.46875H2.48633C2.22561 5.46875 2.01424 5.25887 2.01424 5C2.01424 4.74112 2.22561 4.53125 2.48633 4.53125H5.00413C5.26485 4.53125 5.47621 4.74112 5.47621 5C5.47621 5.25887 5.26485 5.46875 5.00413 5.46875ZM8.02549 7.96875H7.52193C7.26121 7.96875 7.04984 7.75887 7.04984 7.5C7.04984 7.24112 7.26121 7.03125 7.52193 7.03125H8.02549C8.28621 7.03125 8.49757 7.24112 8.49757 7.5C8.49757 7.75887 8.28621 7.96875 8.02549 7.96875ZM8.02549 5.46875H7.52193C7.26121 5.46875 7.04984 5.25887 7.04984 5C7.04984 4.74112 7.26121 4.53125 7.52193 4.53125H8.02549C8.28621 4.53125 8.49757 4.74112 8.49757 5C8.49757 5.25887 8.28621 5.46875 8.02549 5.46875Z" fill="#005FB1"/>
</svg>
