<svg width="22" height="20" viewBox="0 0 22 20" fill="none" xmlns="http://www.w3.org/2000/svg">
<path d="M21.802 9.52191C21.759 9.47887 21.7159 9.43583 21.6686 9.39279C18.3326 6.36049 14.9967 3.32818 11.6607 0.295871C11.3896 0.0493734 11.0926 -0.0797442 10.7181 0.053286C10.5803 0.104151 10.4512 0.20588 10.3436 0.303696C7.00764 3.32818 3.676 6.35657 0.34866 9.38888C0.206613 9.518 0.11622 9.69016 0 9.84275V10.1558C0.0172178 10.1753 0.0344356 10.191 0.0430444 10.2145C0.288398 10.7505 0.916847 10.8718 1.38173 10.4727C1.42477 10.4336 1.47212 10.3944 1.55821 10.324V10.5901C1.55821 13.415 1.56251 16.2399 1.5539 19.0649C1.5539 19.4992 1.69595 19.82 2.14792 20H19.8521C20.317 19.82 20.4461 19.4835 20.4461 19.0453C20.4375 16.2282 20.4418 13.4111 20.4418 10.5901V10.3279C20.558 10.4218 20.6312 10.4883 20.713 10.547C21.0358 10.7779 21.4878 10.7544 21.7676 10.4962C22.0646 10.2223 22.0775 9.81927 21.802 9.52191ZM13.3395 18.5445H8.65624V12.8594H13.3352V18.5445H13.3395ZM18.8578 18.3176V18.5484H14.9407V18.2902C14.9407 16.2908 14.945 14.2953 14.9321 12.296C14.9321 12.1003 14.8632 11.8812 14.7599 11.7091C14.6222 11.4822 14.351 11.4156 14.0712 11.4156C12.0223 11.4117 9.9734 11.4117 7.92448 11.4156C7.3563 11.4156 7.05929 11.7247 7.05929 12.2725C7.05929 14.1975 7.05929 16.1265 7.05929 18.0515V18.5367H3.14224V18.3528C3.14224 15.25 3.14224 12.1434 3.14655 9.04065C3.14655 8.95066 3.18959 8.83328 3.25846 8.77068C5.80239 6.45439 8.35062 4.14201 10.8989 1.82572C10.929 1.79833 10.9634 1.77485 11.0022 1.74355C11.0624 1.7905 11.1141 1.83354 11.1614 1.8805C13.6709 4.16157 16.1847 6.44656 18.6985 8.72764C18.8147 8.83328 18.8621 8.93501 18.8621 9.08369C18.8578 12.159 18.8578 15.2383 18.8578 18.3176Z" fill="#5081E9"/>
</svg>
