<svg width="20" height="21" viewBox="0 0 20 21" fill="none" xmlns="http://www.w3.org/2000/svg">
<path d="M7.10001 18.804V15.704C7.10001 14.904 7.7 14.304 8.5 14.304H11.4C11.8 14.304 12.1 14.404 12.4 14.704C12.7 15.004 12.8 15.304 12.8 15.704V18.804C12.8 19.104 12.9 19.404 13.2 19.704C13.4 19.904 13.7 20.104 14.1 20.104H16.1C17 20.104 17.9 19.704 18.5 19.104C19.1 18.504 19.5 17.604 19.5 16.704V7.90401C19.5 7.20401 19.2 6.50401 18.6 6.00401L11.9 0.70401C10.7 -0.19599 9.1 -0.195992 8 0.804008L1.5 6.00401C0.9 6.50401 0.6 7.20401 0.5 7.90401V16.604C0.5 18.504 2.1 20.004 4 20.004H5.89999C6.49999 20.004 7.10001 19.504 7.10001 18.804Z" fill="#5081E9"/>
</svg>
