<svg width="20" height="20" viewBox="0 0 20 20" fill="none" xmlns="http://www.w3.org/2000/svg">
<path fill-rule="evenodd" clip-rule="evenodd" d="M0 10C0 4.481 4.48 0 10 0C15.53 0 20 4.481 20 10C20 15.521 15.53 20 10 20C4.48 20 0 15.521 0 10ZM10.2725 11.4043C10.1699 11.8623 9.90332 12.1289 9.41797 12.1289C8.83691 12.1289 8.49512 11.7324 8.49512 11.1719V11.0762C8.49512 10.2695 8.91211 9.73633 9.71875 9.26465C10.6006 8.73828 10.8672 8.39648 10.8672 7.76758C10.8672 7.09766 10.3477 6.63281 9.5957 6.63281C8.92578 6.63281 8.47461 6.96094 8.25586 7.56934C8.08496 8.00684 7.77734 8.19824 7.36035 8.19824C6.82031 8.19824 6.48535 7.86328 6.48535 7.34375C6.48535 7.0498 6.55371 6.79004 6.69043 6.53027C7.12793 5.62793 8.22168 5.04688 9.69141 5.04688C11.6328 5.04688 12.9385 6.11328 12.9385 7.70605C12.9385 8.73828 12.4395 9.44238 11.4756 10.0098C10.5664 10.5361 10.3613 10.8301 10.2725 11.4043ZM10.5527 14.0977C10.5527 14.6992 10.0537 15.1709 9.43164 15.1709C8.81641 15.1709 8.31738 14.6992 8.31738 14.0977C8.31738 13.4961 8.81641 13.0244 9.43164 13.0244C10.0537 13.0244 10.5527 13.4961 10.5527 14.0977Z" fill="#8C8C8C"/>
</svg>
