<svg width="20" height="20" viewBox="0 0 20 20" fill="none" xmlns="http://www.w3.org/2000/svg">
<path fill-rule="evenodd" clip-rule="evenodd" d="M0.00012207 9.99933C0.00012207 4.48033 4.48012 -0.000671387 10.0001 -0.000671387C15.5301 -0.000671387 20.0001 4.48033 20.0001 9.99933C20.0001 15.5203 15.5301 19.9993 10.0001 19.9993C4.48012 19.9993 0.00012207 15.5203 0.00012207 9.99933ZM9.12012 6.20933C9.12012 5.73033 9.52012 5.32933 10.0001 5.32933C10.4801 5.32933 10.8701 5.73033 10.8701 6.20933V10.6293C10.8701 11.1103 10.4801 11.4993 10.0001 11.4993C9.52012 11.4993 9.12012 11.1103 9.12012 10.6293V6.20933ZM10.0101 14.6803C9.52012 14.6803 9.13012 14.2803 9.13012 13.8003C9.13012 13.3203 9.52012 12.9303 10.0001 12.9303C10.4901 12.9303 10.8801 13.3203 10.8801 13.8003C10.8801 14.2803 10.4901 14.6803 10.0101 14.6803Z" fill="#8C8C8C"/>
</svg>
