<svg width="12" height="14" viewBox="0 0 12 14" fill="none" xmlns="http://www.w3.org/2000/svg">
<path d="M5.88 13.93C5.67 13.93 5.53 13.86 5.39 13.79C3.92 12.81 2.59 11.62 1.54 10.22C0.560001 8.96 0 7.42 0 5.81C0 4.27 0.63 2.80001 1.75 1.68001C2.87 0.560006 4.41 0 5.95 0C9.17 0 11.83 2.59 11.9 5.81C11.9 7.42 11.34 8.96 10.36 10.22C9.31 11.62 7.98 12.88 6.51 13.79C6.23 13.86 6.09 13.93 5.88 13.93ZM5.88 3.99C4.83 3.99 3.92 4.9 3.92 5.95C3.92 6.44 4.13 6.93 4.48 7.35C5.25 8.12 6.51 8.12001 7.28 7.28001C7.63 6.93001 7.84 6.44 7.84 5.95C7.84 4.83 6.93 3.99 5.88 3.99Z" fill="#FD7D23"/>
</svg>
