<svg width="14" height="10" viewBox="0 0 14 10" fill="none" xmlns="http://www.w3.org/2000/svg">
<path d="M13.9974 3.05713C13.998 4.73895 13.9976 6.42094 13.9963 8.10311C14.0006 8.18186 13.996 8.26083 13.9827 8.33864C13.7551 9.3165 12.9833 9.9826 11.9386 9.98891C10.2924 9.99837 8.6462 10.0021 7 9.99995C5.3538 10.0005 3.7076 9.9968 2.0614 9.98891C1.0167 9.9826 0.244907 9.3165 0.0172996 8.33864C0.00396657 8.26083 -0.000608438 8.18186 0.00365403 8.10311C0.00256239 6.42129 0.00219851 4.7393 0.00256239 3.05713C0.00256239 2.98931 -0.0159955 2.91624 0.046774 2.84631C0.262374 2.93096 0.453411 3.06449 0.653182 3.18068C1.89602 3.90409 3.13704 4.631 4.37623 5.36142C5.06615 5.76676 5.7588 6.16736 6.44108 6.58427C6.60364 6.69772 6.79925 6.75881 7 6.75881C7.20074 6.75881 7.39636 6.69772 7.55892 6.58427C8.2412 6.16736 8.93384 5.76676 9.62376 5.36142C10.8639 4.63275 12.1049 3.90584 13.3468 3.18068C13.5466 3.06449 13.7376 2.93096 13.9532 2.84631C14.016 2.91624 13.9974 2.98931 13.9974 3.05713Z" fill="#FF0000"/>
<path d="M13.945 1.60821C11.622 2.97459 9.31589 4.33098 6.99997 5.69368C4.68405 4.33098 2.37795 2.97459 0.0549316 1.60821C0.10065 1.30228 0.235606 1.01514 0.444103 0.780186C0.790154 0.375898 1.22899 0.115135 1.77973 0.0394299C1.94082 0.0150358 2.10354 0.00185836 2.2666 0L11.7333 0C11.8964 0.00185836 12.0591 0.0150358 12.2202 0.0394299C12.7709 0.115135 13.2098 0.375898 13.5558 0.780186C13.7643 1.01514 13.8993 1.30228 13.945 1.60821Z" fill="#FF0000"/>
</svg>
