<svg width="9" height="12" viewBox="0 0 9 12" fill="none" xmlns="http://www.w3.org/2000/svg">
<path d="M8.6339 6.30809C7.74011 8.04863 6.83286 9.77674 5.91217 11.4924C5.87548 11.5636 5.82489 11.6259 5.76367 11.6754C5.70246 11.7248 5.63199 11.7603 5.55683 11.7794C4.65993 11.8054 3.76148 11.794 2.78079 11.794C2.88166 11.5816 2.94838 11.4292 3.02442 11.2832C3.87166 9.6616 4.71424 8.03998 5.57545 6.4362C5.6547 6.3142 5.69707 6.17014 5.69707 6.02268C5.69707 5.87523 5.6547 5.73117 5.57545 5.60917C4.69097 3.9762 3.83131 2.32863 2.967 0.684306C2.90338 0.564306 2.85683 0.436198 2.77148 0.243225C3.74442 0.243225 4.65528 0.243225 5.56459 0.252955C5.62764 0.267088 5.68703 0.295264 5.73871 0.335562C5.79039 0.37586 5.83315 0.427333 5.86407 0.486468C6.79511 2.2362 7.72614 3.98755 8.63855 5.75025C8.67493 5.83846 8.69331 5.93363 8.6925 6.02968C8.6917 6.12573 8.67174 6.22056 8.6339 6.30809Z" fill="#E8002C"/>
<path d="M2.61776 7.46917C2.60372 7.52888 2.57523 7.58381 2.53501 7.62868C2.49479 7.67355 2.4442 7.70685 2.3881 7.72539C1.60138 7.74647 0.811552 7.73836 0 7.73836V4.37836H2.62862C2.62862 5.43403 2.63793 6.45241 2.61776 7.46917Z" fill="#005FB1"/>
</svg>
