<svg width="21" height="20" viewBox="0 0 21 20" fill="none" xmlns="http://www.w3.org/2000/svg">
<path d="M15.9004 19.004H6.0004C3.2004 19.004 0.900391 16.704 0.900391 13.904V6.00399C0.900391 3.20399 3.2004 1.00399 6.0004 0.903992H15.9004C17.2004 0.903992 18.5004 1.40399 19.5004 2.40399C20.5004 3.30399 21.0004 4.60399 21.0004 6.00399V13.904C21.0004 16.704 18.7004 19.004 15.9004 19.004ZM5.0004 6.20399C4.8004 6.20399 4.6004 6.30399 4.5004 6.40399C4.2004 6.70399 4.20039 7.10399 4.40039 7.40399L4.5004 7.50399L9.1004 11.104C9.7004 11.504 10.3004 11.804 11.0004 11.804C11.7004 11.804 12.4004 11.604 13.0004 11.104L17.5004 7.50399L17.6004 7.40399C17.8004 7.10399 17.8004 6.70399 17.6004 6.40399C17.5004 6.30399 17.3004 6.20399 17.1004 6.10399C16.9004 6.10399 16.7004 6.20399 16.6004 6.30399L12.1004 9.90399C11.8004 10.104 11.5004 10.304 11.1004 10.304C10.7004 10.304 10.4004 10.204 10.1004 9.90399L5.6004 6.30399C5.4004 6.30399 5.2004 6.20399 5.0004 6.20399Z" fill="#5081E9"/>
</svg>
