<svg width="16" height="16" viewBox="0 0 16 16" fill="none" xmlns="http://www.w3.org/2000/svg">
<path d="M0.0727129 9.36029C0.0790291 9.35608 0.0858727 9.3524 0.0921898 9.34819C1.5556 8.47014 3.01902 7.59192 4.48243 6.71353C4.57267 6.65959 4.65746 6.59704 4.73563 6.52677C5.26697 6.03813 5.94182 5.73378 6.65998 5.65891C7.37814 5.58404 8.10131 5.74264 8.72212 6.11115C8.73738 6.1201 8.75317 6.12904 8.76897 6.13851C8.79686 6.15435 8.82912 6.16081 8.86097 6.15693C8.89282 6.15304 8.92257 6.13902 8.94584 6.11694C8.96163 6.10116 8.97742 6.0859 8.99322 6.07064C10.921 4.1441 12.849 2.21756 14.7774 0.291012C14.8314 0.233646 14.8895 0.1802 14.9511 0.13108C15.0588 0.0499426 15.1891 0.0042387 15.324 0.000280693C15.4588 -0.00367731 15.5915 0.0343059 15.7039 0.108984C15.8189 0.183978 15.9076 0.293133 15.9573 0.421097C16.0071 0.549061 16.0155 0.689396 15.9813 0.822363C15.9427 0.959303 15.8664 1.08269 15.7612 1.17853C15.1474 1.79037 14.5344 2.40292 13.922 3.01616C12.5923 4.34542 11.2626 5.67467 9.93285 7.00393C9.91495 7.02234 9.89758 7.04076 9.88074 7.05917C9.85929 7.08242 9.84587 7.11194 9.84246 7.14338C9.83905 7.17482 9.84582 7.20653 9.86179 7.23383C9.86193 7.23383 9.86206 7.23389 9.86216 7.23398C9.86226 7.23408 9.86231 7.23422 9.86231 7.23436C10.2451 7.8604 10.4127 8.59431 10.3397 9.32435C10.2666 10.0544 9.95681 10.7406 9.45751 11.2784C9.40279 11.3369 9.35428 11.4009 9.31274 11.4694C8.4247 12.9451 7.53752 14.4216 6.65123 15.8991C6.64544 15.9091 6.63912 15.9191 6.63333 15.9291C6.62176 15.948 6.60607 15.9641 6.58743 15.9762C6.5688 15.9883 6.54768 15.996 6.52565 15.9988C6.50362 16.0017 6.48123 15.9995 6.46014 15.9925C6.43905 15.9856 6.41981 15.9739 6.40382 15.9585C5.95748 15.5304 4.49706 14.0766 3.07476 12.6516C3.01735 12.5941 2.98513 12.5161 2.98518 12.4349C2.98523 12.3537 3.01754 12.2758 3.07503 12.2183L3.60912 11.6845C3.66663 11.627 3.74464 11.5947 3.82597 11.5947C3.90731 11.5947 3.98531 11.627 4.04283 11.6845C4.746 12.3873 5.45018 13.0908 6.15535 13.7952C6.17131 13.8111 6.19067 13.8232 6.21198 13.8305C6.23328 13.8378 6.25598 13.8402 6.27834 13.8375C6.3007 13.8347 6.32215 13.827 6.34106 13.8147C6.35997 13.8025 6.37585 13.7861 6.3875 13.7668C6.8002 13.0792 7.21817 12.3832 7.63087 11.6956C7.64798 11.6673 7.65506 11.634 7.65095 11.6012C7.64684 11.5684 7.6318 11.5379 7.60824 11.5146C6.56332 10.4724 5.5284 9.44078 4.47716 8.39228C4.45378 8.36893 4.42324 8.35408 4.39043 8.35007C4.35761 8.34607 4.3244 8.35315 4.29608 8.37019C3.61544 8.77843 2.91637 9.1972 2.22783 9.61071C2.20844 9.62226 2.19195 9.63809 2.17963 9.65699C2.16731 9.67589 2.15948 9.69736 2.15673 9.71975C2.15399 9.74214 2.15641 9.76486 2.1638 9.78618C2.1712 9.80749 2.18337 9.82683 2.1994 9.84272C2.36294 10.0062 2.52653 10.1698 2.69017 10.3333C2.74765 10.3909 2.77994 10.4689 2.77994 10.5502C2.77994 10.6315 2.74765 10.7095 2.69017 10.767L2.1596 11.2973C2.13106 11.3258 2.09717 11.3484 2.05987 11.3638C2.02257 11.3792 1.9826 11.3871 1.94224 11.387C1.90188 11.387 1.86193 11.3789 1.82468 11.3634C1.78743 11.3479 1.75361 11.3252 1.72516 11.2966C0.941916 10.5086 0.30191 9.85971 0.0428133 9.58914C0.0274172 9.57318 0.0158138 9.55396 0.00886536 9.53291C0.00191689 9.51186 -0.000200272 9.48951 0.0026722 9.46753C0.00554466 9.44554 0.0133314 9.42449 0.0254564 9.40593C0.0375814 9.38736 0.0537329 9.37176 0.0727129 9.36029ZM5.70949 7.64734C6.58859 8.52644 7.46909 9.40676 8.351 10.2883C8.36551 10.3027 8.3828 10.3139 8.40181 10.3213C8.42082 10.3288 8.44115 10.3323 8.46155 10.3316C8.48196 10.3309 8.502 10.326 8.52047 10.3173C8.53893 10.3086 8.55542 10.2962 8.56893 10.2809C9.17904 9.59493 9.24221 8.34862 8.43522 7.55054C7.6235 6.74772 6.37802 6.83505 5.71633 7.43112C5.70118 7.44456 5.68892 7.46095 5.68033 7.47928C5.67173 7.49762 5.66696 7.51752 5.66632 7.53776C5.66568 7.55799 5.66918 7.57815 5.6766 7.59699C5.68402 7.61584 5.69521 7.63297 5.70949 7.64734Z" fill="#5081E9"/>
</svg>
