<svg width="13" height="14" viewBox="0 0 13 14" fill="none" xmlns="http://www.w3.org/2000/svg">
<g>
<path d="M0.168753 7.23046C-0.054104 6.99997 -0.0557923 6.86339 0.168753 6.64144C0.909922 5.87827 1.66291 5.12193 2.41421 4.36217C2.47668 4.30071 2.53914 4.20168 2.63369 4.23753C2.72823 4.27339 2.70797 4.40827 2.70797 4.50388C2.70797 5.3268 2.70797 6.14973 2.70797 6.97436C2.70797 7.799 2.70797 8.57924 2.70797 9.38168C2.70797 9.46534 2.7468 9.57802 2.64213 9.62241C2.53745 9.6668 2.4733 9.56949 2.42096 9.50802C1.67023 8.74656 0.919489 7.98737 0.168753 7.23046Z" fill="#FDFDFD"/>
<path d="M6.2623 13.3905C5.49581 12.6188 4.73044 11.8454 3.9662 11.0702C3.91048 11.0139 3.83113 10.9558 3.87503 10.8688C3.91893 10.7817 4.00841 10.7937 4.08776 10.7937H4.95217C5.00309 10.8002 5.05483 10.795 5.10344 10.7783C5.15206 10.7617 5.19628 10.734 5.23275 10.6975C5.26921 10.6609 5.29695 10.6165 5.31386 10.5675C5.33078 10.5184 5.33642 10.4662 5.33035 10.4146C5.33035 10.1227 5.33035 9.83243 5.33035 9.54048C5.33035 9.24853 5.33035 8.95829 5.33035 8.66804C5.33035 8.3778 5.44009 8.24463 5.73724 8.24292C6.27243 8.24292 6.80932 8.24292 7.34451 8.24292C7.64334 8.24292 7.74802 8.35219 7.74971 8.66804C7.74971 9.23999 7.74971 9.81194 7.74971 10.3839C7.74971 10.7117 7.83412 10.7937 8.15659 10.7988C8.4149 10.7988 8.67321 10.7988 8.93152 10.7988C9.01087 10.7988 9.10035 10.7988 9.14425 10.8722C9.18815 10.9456 9.11048 11.019 9.05477 11.0754C8.2894 11.8493 7.52403 12.6228 6.75867 13.3956C6.72804 13.4322 6.68981 13.4615 6.64671 13.4814C6.60361 13.5013 6.55669 13.5114 6.50929 13.5109C6.4619 13.5105 6.4152 13.4994 6.37251 13.4786C6.32982 13.4578 6.29219 13.4277 6.2623 13.3905Z" fill="#FDFDFD"/>
<path d="M3.82367 3.06125C3.77471 2.9571 3.86419 2.89052 3.92497 2.83417L6.01172 0.725638C6.13924 0.57584 6.28837 0.446336 6.45406 0.341492C6.45904 0.366107 6.45654 0.391668 6.4469 0.414823C6.43726 0.437978 6.42092 0.457646 6.40004 0.471248C5.60822 1.15417 4.91432 1.95149 4.16302 2.69076C4.12757 2.72491 4.09043 2.76076 4.05835 2.79832C4.02627 2.83588 3.93848 2.90076 3.96549 2.96905C3.9925 3.03734 4.10224 3.03393 4.17653 3.03564C4.37406 3.03564 4.57328 3.03564 4.7725 3.03564C5.2638 3.03564 5.39549 3.17222 5.40055 3.66052C5.40055 4.12149 5.40055 4.58417 5.40055 5.04686C5.40055 5.38832 5.50692 5.49759 5.84796 5.50442C6.31562 5.51296 6.78328 5.51466 7.24926 5.50442C7.5751 5.50442 7.67471 5.39174 7.67978 5.06052C7.68991 4.59954 7.67978 4.13686 7.67978 3.67417C7.67978 3.16198 7.81315 3.04076 8.32302 3.03564C8.50198 3.03564 8.68094 3.03564 8.85991 3.03564C8.92575 3.03564 9.01354 3.05613 9.04393 2.97417C9.07432 2.89222 9.00341 2.84442 8.95614 2.80344C8.61848 2.46198 8.28081 2.12052 7.94315 1.77905C7.50081 1.34539 7.099 0.875882 6.61614 0.479784C6.59504 0.464618 6.57935 0.442951 6.57144 0.418022C6.56353 0.393094 6.56381 0.366245 6.57224 0.341492C6.70423 0.421612 6.8223 0.523128 6.92172 0.641979C7.63307 1.35905 8.34216 2.07613 9.049 2.7932C9.12159 2.86661 9.25328 2.9332 9.18913 3.06295C9.12497 3.19271 9.01017 3.11588 8.91731 3.1193C8.659 3.1193 8.40068 3.1193 8.14237 3.1193C8.08778 3.11012 8.03182 3.11424 7.97912 3.13133C7.92643 3.14842 7.87853 3.17797 7.8394 3.21755C7.80027 3.25712 7.77104 3.30556 7.75414 3.35884C7.73725 3.41213 7.73317 3.46873 7.74224 3.52393C7.74224 4.05661 7.74224 4.5893 7.74224 5.12198C7.74224 5.48222 7.63757 5.58125 7.27627 5.58295C6.76978 5.58295 6.26328 5.58295 5.75679 5.58295C5.43601 5.58295 5.32458 5.47369 5.3212 5.15271C5.3212 4.62174 5.3212 4.08905 5.3212 3.55637C5.3212 3.23027 5.21822 3.12613 4.89575 3.12271C4.60705 3.12271 4.32004 3.12271 4.03133 3.12271C3.9638 3.1193 3.86588 3.15174 3.82367 3.06125Z" fill="#FDFDFD"/>
<path d="M10.3717 9.25879C10.3717 8.47513 10.3717 7.69318 10.3717 6.91122C10.3717 6.12927 10.3717 5.34561 10.3717 4.56366C10.3717 4.46976 10.3329 4.3383 10.4477 4.29561C10.5625 4.25293 10.6165 4.37244 10.6874 4.43903C11.4044 5.16179 12.1191 5.88513 12.8316 6.60903C13.0916 6.87537 13.0899 6.99318 12.8231 7.26293C12.1174 7.98 11.4083 8.69594 10.6959 9.41074C10.625 9.48244 10.5608 9.62244 10.4342 9.55927C10.3076 9.4961 10.3717 9.36122 10.3717 9.25879Z" fill="#FDFDFD"/>
<path d="M9.19654 3.06295C9.1442 3.17052 9.01758 3.11588 8.92472 3.1193C8.66641 3.1193 8.4081 3.1193 8.14979 3.1193C8.0952 3.11012 8.03923 3.11424 7.98654 3.13133C7.93384 3.14842 7.88594 3.17797 7.84681 3.21755C7.80768 3.25712 7.77846 3.30556 7.76156 3.35884C7.74466 3.41213 7.74058 3.46873 7.74966 3.52393C7.74966 4.05661 7.74966 4.5893 7.74966 5.12198C7.74966 5.48222 7.64498 5.58125 7.28368 5.58295C6.77719 5.58295 6.2707 5.58295 5.7642 5.58295C5.44342 5.58295 5.332 5.47369 5.32862 5.15271C5.32862 4.62174 5.32862 4.08905 5.32862 3.55637C5.32862 3.23027 5.22563 3.12613 4.90316 3.12271C4.61446 3.12271 4.32745 3.12271 4.03875 3.12271C3.96446 3.12271 3.86992 3.15515 3.82433 3.06466C3.77875 2.97417 3.86485 2.89393 3.92563 2.83759L6.01238 0.725638C6.13991 0.57584 6.28903 0.446336 6.45472 0.341492H6.5729C6.70489 0.421612 6.82296 0.523128 6.92238 0.641979C7.63373 1.35905 8.34282 2.07613 9.04966 2.7932C9.12901 2.86661 9.2607 2.9332 9.19654 3.06295Z" fill="#EE1616"/>
<path d="M9.05807 11.0702C8.2927 11.8442 7.52733 12.6176 6.76196 13.3905C6.73178 13.4292 6.69331 13.4605 6.64945 13.482C6.60558 13.5035 6.55747 13.5147 6.50871 13.5147C6.45996 13.5147 6.41184 13.5035 6.36798 13.482C6.32412 13.4605 6.28565 13.4292 6.25547 13.3905C5.48897 12.6188 4.72361 11.8454 3.95936 11.0702C3.90365 11.0139 3.8243 10.9558 3.86819 10.8688C3.91209 10.7817 4.00157 10.7937 4.08092 10.7937H4.94534C4.99677 10.8014 5.04928 10.797 5.09877 10.7809C5.14826 10.7647 5.19339 10.7372 5.23065 10.7006C5.2679 10.6639 5.29628 10.619 5.31356 10.5694C5.33084 10.5198 5.33656 10.4668 5.33027 10.4146C5.33027 10.1227 5.33027 9.83243 5.33027 9.54048C5.33027 9.24853 5.33027 8.95829 5.33027 8.66804C5.33027 8.3778 5.44001 8.24463 5.73716 8.24292C6.27235 8.24292 6.80923 8.24292 7.34443 8.24292C7.64326 8.24292 7.74794 8.35219 7.74962 8.66804C7.74962 9.23999 7.74962 9.81194 7.74962 10.3839C7.74962 10.7117 7.83404 10.7937 8.15651 10.7988C8.41482 10.7988 8.67313 10.7988 8.93144 10.7988C9.01079 10.7988 9.10027 10.7988 9.14417 10.8722C9.18807 10.9456 9.11716 11.0139 9.05807 11.0702Z" fill="#EE1616"/>
<path d="M2.70122 9.39022C2.70122 9.47388 2.74005 9.58656 2.63538 9.63095C2.5307 9.67534 2.46655 9.57802 2.41421 9.51656C1.66797 8.74941 0.919489 7.98737 0.168753 7.23046C-0.054104 6.99997 -0.0557923 6.86339 0.168753 6.64144C0.909922 5.87827 1.66291 5.12193 2.41421 4.36217C2.47668 4.30071 2.53914 4.20168 2.63369 4.23753C2.72823 4.27339 2.70797 4.40827 2.70797 4.50388C2.70797 5.3268 2.70797 6.14973 2.70797 6.97436C2.70797 7.799 2.71135 8.57924 2.70122 9.39022Z" fill="#EE1616"/>
<path d="M12.8308 7.26293C12.1251 7.98 11.416 8.69594 10.7036 9.41074C10.6326 9.48244 10.5685 9.62244 10.4419 9.55927C10.3152 9.4961 10.3777 9.36122 10.3777 9.25879C10.3777 8.47513 10.3777 7.69318 10.3777 6.91122C10.3777 6.12927 10.3777 5.34561 10.3777 4.56366C10.3777 4.46976 10.3389 4.3383 10.4537 4.29561C10.5685 4.25293 10.6225 4.37244 10.6934 4.43903C11.4059 5.16179 12.1184 5.88513 12.8308 6.60903C13.0925 6.87537 13.0908 7 12.8308 7.26293Z" fill="#EE1616"/>
</g>
</svg>
