<svg width="14" height="16" viewBox="0 0 14 16" fill="none" xmlns="http://www.w3.org/2000/svg">
<path d="M6.41533 16C5.93533 15.92 5.45532 15.76 5.05532 15.44C4.73532 15.2 4.49533 14.88 4.49533 14.48C4.49533 14.08 4.89533 13.92 5.21533 13.84C6.25533 13.76 7.37533 13.76 8.41533 13.84C8.73533 13.92 9.13532 14.08 9.13532 14.48C9.13532 14.88 8.89534 15.2 8.57534 15.44C8.17534 15.76 7.69533 15.92 7.21533 16C7.05533 16 6.97533 16 6.81533 16C6.65533 16 6.57533 16 6.41533 16ZM3.05532 12.56C2.17532 12.48 1.37532 12.08 0.735323 11.44C0.255323 10.88 0.0153277 10.24 0.0153277 9.52C-0.0646723 8.88 0.175337 8.16 0.575337 7.68C1.13534 7.04 1.45532 6.24 1.45532 5.44V5.12C1.37532 4 1.77533 2.88 2.49533 2C3.53533 0.72 5.13533 0 6.81533 0H6.89533C8.57533 0 10.1753 0.799999 11.2953 2.08C11.9353 2.96 12.3353 4 12.2553 5.04V5.36C12.2553 6.24 12.4953 7.04 13.1353 7.6C13.5353 8.16 13.7753 8.8 13.6953 9.44C13.6953 10.16 13.4553 10.8 12.9753 11.36C12.3353 12 11.5353 12.4 10.6553 12.48C9.37532 12.56 8.17533 12.64 6.89533 12.64C5.53533 12.8 4.25532 12.72 3.05532 12.56Z" fill="#FF0000"/>
</svg>
