<svg width="10" height="10" viewBox="0 0 10 10" fill="none" xmlns="http://www.w3.org/2000/svg">
<path d="M4.15712 9.70894C4.89631 9.70894 5.51465 9.2019 5.65664 8.53076H2.65759C2.79966 9.2019 3.41801 9.70894 4.15712 9.70894Z" fill="#FF0000"/>
<path d="M7.01928 4.99596C7.01764 4.99596 7.016 4.99632 7.01435 4.99632C5.43934 4.99632 4.15737 3.76313 4.15737 2.24727C4.15737 1.83055 4.25699 1.43662 4.43044 1.0824C4.34061 1.0742 4.24959 1.06909 4.15737 1.06909C2.57952 1.06909 1.30039 2.29983 1.30039 3.81814V4.91305C1.30039 5.69025 0.946522 6.42388 0.325712 6.9289C0.118775 7.09897 0.0269279 7.36993 0.101213 7.63427C0.187754 7.94176 0.503652 8.13815 0.835095 8.13815H7.47762C7.82536 8.13815 8.15314 7.92134 8.22369 7.59343C8.27839 7.33973 8.18453 7.08639 7.98006 6.92107C7.3866 6.44236 7.04335 5.73894 7.01928 4.99596Z" fill="#FF0000"/>
<path d="M9.05502 2.24734C9.05502 3.33182 8.1414 4.21092 7.01427 4.21092C5.88722 4.21092 4.9736 3.33182 4.9736 2.24734C4.9736 1.16286 5.88722 0.283691 7.01427 0.283691C8.1414 0.283691 9.05502 1.16286 9.05502 2.24734Z" fill="#FF0000"/>
</svg>
