<svg width="17" height="21" viewBox="0 0 17 21" fill="none" xmlns="http://www.w3.org/2000/svg">
<path d="M4.70001 20.004C2.10001 20.004 0 17.904 0 15.304V4.50403C0 2.00403 2 0.00402832 4.5 0.00402832H9.79999C10.1 0.00402832 10.3 0.204028 10.3 0.504028V3.70403C10.3 5.50403 11.8 7.00403 13.6 7.00403C14 7.00403 14.4 7.00403 14.7 7.00403C15 7.00403 15.2 7.00403 15.4 7.00403C15.5 7.00403 15.7 7.00403 15.9 7.00403C16.1 7.00403 16.4 7.00403 16.6 7.00403C16.8 7.00403 17 7.20403 17 7.40403V15.404C17 17.904 15 19.904 12.5 19.904H4.70001V20.004ZM5.09998 11.004C5.09998 11.404 5.39999 11.704 5.79999 11.704H7.5V13.404C7.5 13.804 7.80001 14.104 8.20001 14.204C8.60001 14.204 8.9 13.904 9 13.504C9 13.504 9 13.504 9 13.404V11.704H10.7C11.1 11.704 11.4 11.404 11.4 11.004C11.4 10.604 11.1 10.304 10.7 10.304H9V8.60403C9 8.20403 8.69999 7.90403 8.29999 7.80403C7.89999 7.80403 7.6 8.10403 7.5 8.50403C7.5 8.50403 7.5 8.50403 7.5 8.60403V10.304H5.79999C5.49999 10.204 5.09998 10.604 5.09998 11.004ZM13.6 5.60403C12.5 5.60403 11.6 4.70403 11.6 3.60403V0.90403C11.6 0.60403 11.8 0.40403 12.1 0.40403C12.2 0.40403 12.4 0.504028 12.5 0.504028L16.5 4.70403C16.7 4.90403 16.7 5.20403 16.5 5.40403C16.4 5.50403 16.3 5.50403 16.2 5.50403H15.6C14.8 5.60403 14.2 5.60403 13.6 5.60403Z" fill="#5081E9"/>
</svg>
