<svg width="22" height="21" viewBox="0 0 22 21" fill="none" xmlns="http://www.w3.org/2000/svg">
<path d="M11 20.9166C5.0169 20.9166 0.166656 16.2529 0.166656 10.5C0.166656 4.74701 5.0169 0.083313 11 0.083313C16.983 0.083313 21.8333 4.74701 21.8333 10.5C21.8267 16.2503 16.9803 20.9103 11 20.9166ZM2.33332 10.6791C2.38459 15.2637 6.27786 18.9474 11.046 18.9229C15.8143 18.8981 19.6661 15.1745 19.6661 10.5896C19.6661 6.00468 15.8143 2.28099 11.046 2.25623C6.27786 2.23171 2.38459 5.91536 2.33332 10.5V10.6791ZM12.0833 15.7083H9.91666V11.5416H5.58332V9.45831H9.91666V5.29165H12.0833V9.45831H16.4167V11.5416H12.0833V15.7083Z" fill="#5081E9"/>
</svg>
