<svg width="21" height="21" viewBox="0 0 21 21" fill="none" xmlns="http://www.w3.org/2000/svg">
<path d="M14.7004 20.004H5.40044C4.00044 20.104 2.50044 19.604 1.50044 18.604C0.500443 17.504 0.000449225 16.104 0.100449 14.704V5.40399C0.000449225 4.00399 0.500443 2.50399 1.50044 1.50399C2.60044 0.503991 4.00044 0.00398912 5.40044 0.103989H14.7004C16.1004 0.00398912 17.6004 0.503991 18.6004 1.50399C19.6004 2.60399 20.1004 4.00399 20.0004 5.40399V14.704C20.0004 18.104 18.1004 20.004 14.7004 20.004ZM6.30045 9.20399C5.80045 9.20399 5.50044 9.60399 5.50044 10.004C5.50044 10.504 5.90045 10.804 6.30045 10.804H9.10045V13.604C9.10045 14.104 9.50044 14.404 9.90044 14.404C10.3004 14.404 10.7004 14.004 10.7004 13.604V10.804H13.5004C14.0004 10.804 14.3004 10.404 14.3004 9.90399C14.3004 9.50399 13.9004 9.10399 13.5004 9.10399H10.7004V6.30399C10.7004 5.80399 10.3004 5.50399 9.90044 5.50399C9.40044 5.50399 9.10045 5.90399 9.10045 6.30399V9.10399H6.30045V9.20399Z" fill="#5081E9"/>
</svg>
