<svg width="8" height="10" viewBox="0 0 8 10" fill="none" xmlns="http://www.w3.org/2000/svg">
<path d="M3.74353 4.94045C4.83262 4.94045 5.71558 3.90856 5.71558 2.63565C5.71558 1.3627 5.42569 0.330811 3.74353 0.330811C2.06137 0.330811 1.77142 1.3627 1.77142 2.63565C1.77142 3.90856 2.65439 4.94045 3.74353 4.94045Z" fill="#5081E9"/>
<path d="M7.46309 8.36669C7.42657 6.14924 7.1256 5.51739 4.82246 5.11743C4.82246 5.11743 4.49826 5.51494 3.74261 5.51494C2.98696 5.51494 2.6627 5.11743 2.6627 5.11743C0.384701 5.51303 0.0654256 6.13551 0.0234451 8.29466C0.0200027 8.47097 0.0184075 8.48023 0.0177917 8.45976C0.0179317 8.49811 0.0180995 8.56904 0.0180995 8.69273C0.0180995 8.69273 0.566421 9.75635 3.74261 9.75635C6.91874 9.75635 7.46712 8.69273 7.46712 8.69273C7.46712 8.61326 7.46718 8.558 7.46726 8.52041C7.46665 8.53307 7.46541 8.50853 7.46309 8.36669Z" fill="#5081E9"/>
</svg>
