<svg width="98" height="98" viewBox="0 0 98 98" fill="none" xmlns="http://www.w3.org/2000/svg">
<path d="M94.6884 77.2269L78.4981 61.0973C81.4418 55.2319 83.4043 48.389 83.4043 41.5461C83.4043 18.5736 64.7609 0 41.7021 0C18.6433 0 0 18.5736 0 41.5461C0 64.5187 18.6433 83.0923 41.7021 83.0923C48.5707 83.0923 55.4393 81.1372 61.3267 78.2045L77.5169 94.3342C82.423 99.2219 89.7822 99.2219 94.6884 94.3342C99.1039 89.4464 99.1039 82.1147 94.6884 77.2269ZM41.7021 73.3167C24.04 73.3167 9.81227 59.1422 9.81227 41.5461C9.81227 23.9501 24.04 9.77556 41.7021 9.77556C59.3642 9.77556 73.592 23.9501 73.592 41.5461C73.592 59.1422 59.3642 73.3167 41.7021 73.3167Z" fill="#DEDEDE"/>
<g clip-path="url(#clip0)">
<path d="M44.7485 42.0209L56.4299 30.3392C57.1901 29.5793 57.1901 28.3507 56.4299 27.5909C55.6701 26.831 54.4415 26.831 53.6816 27.5909L41.9999 39.2726L30.3184 27.5909C29.5582 26.831 28.33 26.831 27.5702 27.5909C26.8099 28.3507 26.8099 29.5793 27.5702 30.3392L39.2516 42.0209L27.5702 53.7027C26.8099 54.4625 26.8099 55.6911 27.5702 56.451C27.9488 56.83 28.4467 57.0204 28.9443 57.0204C29.4418 57.0204 29.9394 56.83 30.3184 56.451L41.9999 44.7692L53.6816 56.451C54.0607 56.83 54.5582 57.0204 55.0558 57.0204C55.5533 57.0204 56.0509 56.83 56.4299 56.451C57.1901 55.6911 57.1901 54.4625 56.4299 53.7027L44.7485 42.0209Z" fill="#DEDEDE"/>
</g>
<defs>
<clipPath id="clip0">
<rect width="30" height="30" fill="white" transform="translate(27 27)"/>
</clipPath>
</defs>
</svg>
