<svg width="18" height="20" viewBox="0 0 18 20" fill="none" xmlns="http://www.w3.org/2000/svg">
<g clip-path="url(#clip0)">
<path d="M17.7816 1.32326C17.3906 0.478028 16.7601 0.00845236 15.8971 0.00845236C11.2967 -0.00328703 6.6998 0.000626101 2.09941 0.000626101C0.940509 0.000626101 0 1.04934 0 2.33285C0 7.43557 0 12.5383 0 17.6449C0 18.7993 0.722113 19.7541 1.75068 19.9654C1.77886 19.9693 1.80352 19.9889 1.82818 20.0045H10.2294V18.4354H2.24736C1.67671 18.4354 1.40548 18.1341 1.40548 17.504V2.50503C1.40548 1.85936 1.67319 1.56196 2.2544 1.56196H15.735C16.3268 1.56196 16.591 1.85545 16.591 2.51677V11.1726H18V2.03154C17.9296 1.79675 17.8838 1.5424 17.7816 1.32326Z" fill="#5081E9"/>
<path d="M16.6297 17.3758C17.0771 16.601 17.2145 15.7127 17.1264 14.9731C16.8869 13.0166 15.2736 11.6431 13.5194 11.9561C12.2513 12.1792 11.3777 12.9931 10.9832 14.3431C10.5886 15.6853 10.8634 16.9062 11.7546 17.9197C12.7268 19.0232 14.2239 19.258 15.4638 18.5458C15.5202 18.5145 15.6258 18.491 15.6575 18.5263C16.1049 19.0154 16.5417 19.5124 16.9785 20.0054H17.0137C17.3413 19.6415 17.6689 19.2776 18 18.9098V18.8706C17.8309 18.6906 17.6618 18.5145 17.4963 18.3306C17.2074 18.0136 16.9186 17.6928 16.6297 17.3758ZM13.9949 17.3797C13.0403 17.3836 12.2372 16.4993 12.2372 15.4349C12.2372 14.3666 13.0262 13.4822 13.9879 13.4783C14.9495 13.4783 15.7421 14.351 15.7491 15.4232C15.7491 16.4836 14.953 17.3719 13.9949 17.3797Z" fill="#5081E9"/>
<path d="M14.1253 9.11127H7.03797V9.11518H4.19531V10.653H7.03797H14.1253V9.11127Z" fill="#5081E9"/>
<path d="M9.41214 15.611V14.0693H7.0415V14.0732H4.19531V15.6071H7.0415V15.611H9.41214Z" fill="#5081E9"/>
<path d="M8.84502 5.96907H14.1253V4.43121H8.84502H7.03797H4.19531V5.96907H7.03797H8.84502Z" fill="#5081E9"/>
</g>
<defs>
<clipPath id="clip0">
<rect width="18" height="20" fill="white"/>
</clipPath>
</defs>
</svg>
