<svg width="9" height="9" viewBox="0 0 9 9" fill="none" xmlns="http://www.w3.org/2000/svg">
<path d="M6.87549 4.81445C5.7596 4.81445 4.85177 5.68799 4.85177 6.76172C4.85177 7.83544 5.7596 8.70898 6.87549 8.70898C8.00074 8.70898 8.91621 7.83544 8.91621 6.76172C8.91621 5.68799 8.00074 4.81445 6.87549 4.81445ZM7.4966 6.52613L6.81636 7.31158C6.76758 7.36789 6.6956 7.39989 6.62041 7.39989C6.61064 7.39989 6.60082 7.39935 6.59098 7.39826C6.50547 7.3887 6.43073 7.3383 6.39223 7.26421L6.12013 6.74057C6.05712 6.61934 6.10821 6.47188 6.23421 6.41127C6.3602 6.35061 6.51345 6.39979 6.57645 6.52104L6.67412 6.70899L7.10466 6.21185C7.19486 6.10773 7.35572 6.09367 7.46393 6.18042C7.57217 6.26721 7.5868 6.42198 7.4966 6.52613Z" fill="#69C327"/>
<path d="M6.76554 1.72913L5.73052 0.69922C5.73002 0.698729 5.72951 0.698221 5.72902 0.69773C5.49071 0.46455 5.15911 0.330811 4.81928 0.330811H1.53559C1.11362 0.330811 0.770325 0.661142 0.770325 1.06717V7.43259C0.770325 7.83862 1.11362 8.16895 1.53559 8.16895H4.80738C4.51414 7.77112 4.34158 7.28545 4.34158 6.76169C4.34158 5.41727 5.47828 4.32352 6.87548 4.32352C6.96156 4.32352 7.04664 4.32767 7.13057 4.33568V2.58865C7.13057 2.26516 7.00093 1.95997 6.76554 1.72913ZM3.47428 5.8126H2.1138C1.97292 5.8126 1.85871 5.7027 1.85871 5.56715C1.85871 5.43159 1.97292 5.32169 2.1138 5.32169H3.47428C3.61516 5.32169 3.72937 5.43159 3.72937 5.56715C3.72937 5.7027 3.61516 5.8126 3.47428 5.8126ZM3.47428 4.50352H2.1138C1.97292 4.50352 1.85871 4.39362 1.85871 4.25806C1.85871 4.12251 1.97292 4.01261 2.1138 4.01261H3.47428C3.61516 4.01261 3.72937 4.12251 3.72937 4.25806C3.72937 4.39362 3.61516 4.50352 3.47428 4.50352ZM3.47428 3.19443H2.1138C1.97292 3.19443 1.85871 3.08453 1.85871 2.94898C1.85871 2.81342 1.97292 2.70353 2.1138 2.70353H3.47428C3.61516 2.70353 3.72937 2.81342 3.72937 2.94898C3.72937 3.08453 3.61516 3.19443 3.47428 3.19443ZM5.10685 4.50352H4.83476C4.69388 4.50352 4.57967 4.39362 4.57967 4.25806C4.57967 4.12251 4.69388 4.01261 4.83476 4.01261H5.10685C5.24773 4.01261 5.36194 4.12251 5.36194 4.25806C5.36194 4.39362 5.24773 4.50352 5.10685 4.50352ZM5.10685 3.19443H4.83476C4.69388 3.19443 4.57967 3.08453 4.57967 2.94898C4.57967 2.81342 4.69388 2.70353 4.83476 2.70353H5.10685C5.24773 2.70353 5.36194 2.81342 5.36194 2.94898C5.36194 3.08453 5.24773 3.19443 5.10685 3.19443Z" fill="#69C327"/>
</svg>
