<svg width="18" height="20" viewBox="0 0 18 20" fill="none" xmlns="http://www.w3.org/2000/svg">
<path fill-rule="evenodd" clip-rule="evenodd" d="M7.29527 0.0399711C7.10195 0.150223 7.06153 0.452715 7.16622 1.00532C7.27819 1.59639 7.28146 1.67075 7.19869 1.74139C7.15742 1.77661 6.91472 1.87255 6.65934 1.95458C5.08267 2.46109 3.87493 3.19356 2.73918 4.33214C1.19946 5.87567 0.265915 7.79004 0.0336691 9.88017C-0.0323465 10.4743 0.00504208 11.9481 0.0909633 12.1384C0.313236 12.6308 0.807284 12.8157 1.28191 12.5841C1.64752 12.4057 1.72335 12.206 1.81339 11.1846C1.96197 9.4994 2.71459 7.96738 4.00151 6.73045C4.50638 6.2452 5.03043 5.88081 5.67011 5.57017C6.28828 5.26997 6.73977 5.11212 7.3784 4.9729C7.85719 4.86853 7.84746 4.86403 7.88989 5.21159C7.96221 5.80309 8.09214 6.21722 8.25579 6.37743C8.33553 6.45551 8.55489 6.4593 8.73473 6.38574C8.82417 6.34917 9.13381 6.03984 9.65483 5.46664C10.7517 4.25987 11.7407 3.12782 11.8059 3.00429C11.9143 2.79924 11.9181 2.63815 11.8192 2.4482C11.7352 2.28684 11.6647 2.23434 11.0604 1.88287C10.3099 1.44641 8.10191 0.210745 7.84197 0.0816764C7.66164 -0.00786151 7.41244 -0.0268364 7.29527 0.0399711ZM16.8296 7.36271C16.3822 7.52645 16.2824 7.72027 16.2061 8.5739C16.1101 9.64725 15.9214 10.3551 15.5035 11.2092C14.558 13.142 12.8584 14.5028 10.7777 14.9928C10.0909 15.1545 10.1752 15.2043 10.0665 14.5729C9.92281 13.7382 9.79853 13.5294 9.46708 13.566C9.36691 13.5771 9.23928 13.6155 9.18344 13.6513C8.94049 13.8071 6.27645 16.8241 6.16432 17.0703C6.07234 17.2723 6.08801 17.4533 6.21229 17.6241C6.31327 17.763 7.69697 18.5737 9.686 19.6593C10.202 19.9409 10.3406 20 10.4853 20C10.6225 20 10.6818 19.9775 10.7586 19.8964C10.9082 19.7383 10.9205 19.5679 10.8241 18.9926C10.7764 18.708 10.7374 18.4361 10.7374 18.3885C10.7374 18.2677 10.8451 18.2098 11.4446 18.0087C13.9831 17.1574 15.8851 15.5217 17.0586 13.1809C17.7148 11.8717 17.9591 10.8644 17.9933 9.32661C18.0156 8.32066 17.9873 8.04399 17.8312 7.74572C17.6504 7.40014 17.1989 7.22751 16.8296 7.36271Z" fill="#8C8C8C"/>
</svg>
