<svg width="9" height="11" viewBox="0 0 9 11" fill="none" xmlns="http://www.w3.org/2000/svg">
<path d="M4.60478 2.73578C3.90471 2.73578 3.335 3.28588 3.335 3.96186C3.335 4.63783 3.90471 5.18793 4.60478 5.18793C5.30486 5.18793 5.87457 4.63783 5.87457 3.96186C5.87457 3.28588 5.30486 2.73578 4.60478 2.73578ZM4.60478 2.73578C3.90471 2.73578 3.335 3.28588 3.335 3.96186C3.335 4.63783 3.90471 5.18793 4.60478 5.18793C5.30486 5.18793 5.87457 4.63783 5.87457 3.96186C5.87457 3.28588 5.30486 2.73578 4.60478 2.73578ZM4.60478 0.28363C2.50435 0.28363 0.795441 1.93372 0.795441 3.96186C0.795441 6.49615 4.2156 10.478 4.3612 10.6464C4.48818 10.7931 4.7216 10.7927 4.84837 10.6464C4.99397 10.478 8.41413 6.49615 8.41413 3.96186C8.41413 1.93372 6.70521 0.28363 4.60478 0.28363ZM6.8269 4.26837H6.48279C6.34883 5.03733 5.71859 5.64587 4.92223 5.77522V6.10749C4.92223 6.27669 4.78001 6.41401 4.60478 6.41401C4.42955 6.41401 4.28734 6.27669 4.28734 6.10749V5.77522C3.49097 5.64587 2.86074 5.03733 2.72678 4.26837H2.38267C2.20744 4.26837 2.06522 4.13105 2.06522 3.96186C2.06522 3.79266 2.20744 3.65534 2.38267 3.65534H2.72678C2.86074 2.88638 3.49097 2.27784 4.28734 2.14849V1.81622C4.28734 1.64703 4.42955 1.50971 4.60478 1.50971C4.78001 1.50971 4.92223 1.64703 4.92223 1.81622V2.14849C5.71859 2.27784 6.34883 2.88638 6.48279 3.65534H6.8269C7.00213 3.65534 7.14435 3.79266 7.14435 3.96186C7.14435 4.13105 7.00213 4.26837 6.8269 4.26837ZM4.60478 2.73578C3.90471 2.73578 3.335 3.28588 3.335 3.96186C3.335 4.63783 3.90471 5.18793 4.60478 5.18793C5.30486 5.18793 5.87457 4.63783 5.87457 3.96186C5.87457 3.28588 5.30486 2.73578 4.60478 2.73578ZM4.60478 2.73578C3.90471 2.73578 3.335 3.28588 3.335 3.96186C3.335 4.63783 3.90471 5.18793 4.60478 5.18793C5.30486 5.18793 5.87457 4.63783 5.87457 3.96186C5.87457 3.28588 5.30486 2.73578 4.60478 2.73578ZM4.60478 2.73578C3.90471 2.73578 3.335 3.28588 3.335 3.96186C3.335 4.63783 3.90471 5.18793 4.60478 5.18793C5.30486 5.18793 5.87457 4.63783 5.87457 3.96186C5.87457 3.28588 5.30486 2.73578 4.60478 2.73578Z" fill="white"/>
</svg>
