<svg width="9" height="13" viewBox="0 0 9 13" fill="none" xmlns="http://www.w3.org/2000/svg">
<path d="M8.60964 7.46485L4.26823 6.48846C3.72623 6.36665 3.24356 6.06202 2.90246 5.62648C2.56137 5.19094 2.38296 4.65145 2.39766 4.09996C2.41235 3.54846 2.61924 3.01908 2.98305 2.60206C3.34686 2.18503 3.84509 1.90616 4.39281 1.81297C4.94054 1.71978 5.50387 1.81805 5.98679 2.09102C6.46971 2.36398 6.84234 2.79476 7.04116 3.30993C7.23999 3.8251 7.25271 4.39278 7.07716 4.91622C6.90161 5.43966 6.54864 5.88646 6.07843 6.18048C6.06886 6.18699 6.06141 6.19613 6.05699 6.20677C6.05257 6.21742 6.05137 6.22911 6.05354 6.24043C6.05571 6.25174 6.06115 6.26218 6.06921 6.27046C6.07726 6.27875 6.08757 6.28453 6.09888 6.28709L8.0301 6.72029C8.0524 6.72523 8.07566 6.72371 8.09711 6.71591C8.11856 6.70811 8.13731 6.69436 8.15112 6.67629C8.60931 6.07421 8.89434 5.35998 8.9758 4.60973C9.05727 3.85948 8.93213 3.10135 8.61372 2.41616C8.29531 1.73097 7.79556 1.14441 7.16777 0.719007C6.53997 0.293607 5.80766 0.0453177 5.0489 0.000610292H4.87845C3.99423 -0.0134357 3.12328 0.215214 2.36163 0.661346C1.59999 1.10748 0.977244 1.75376 0.562067 2.52893C0.146889 3.3041 -0.0445907 4.17803 0.00874117 5.05437C0.0620731 5.93071 0.358145 6.77541 0.864309 7.49531L4.72504 12.9628C4.7336 12.9741 4.74465 12.9833 4.75735 12.9898C4.77005 12.9963 4.78407 12.9997 4.79834 13C4.81262 12.9999 4.82669 12.9964 4.83941 12.99C4.85213 12.9835 4.86316 12.9742 4.87163 12.9628L8.66077 7.60192C8.67092 7.58692 8.67627 7.56922 8.67611 7.55115C8.67627 7.53123 8.66961 7.51184 8.65722 7.49617C8.64484 7.48049 8.62746 7.46945 8.60793 7.46485" fill="#FABC26"/>
</svg>
