<svg width="22" height="24" viewBox="0 0 22 24" fill="none" xmlns="http://www.w3.org/2000/svg">
<g clip-path="url(#clip0)">
<path d="M21.9064 8.51719C21.7753 7.12969 21.4991 5.77969 20.9328 4.49531C20.137 2.68594 18.7421 1.57031 16.9119 0.9375C15.5826 0.478125 14.2157 0.20625 12.8162 0.0890625C12.5213 0.065625 12.2311 0.028125 11.9362 0H9.9234C9.46 0.046875 8.9966 0.0890625 8.53319 0.145312C7.09149 0.31875 5.6966 0.660938 4.35787 1.24219C2.5417 2.03437 1.39957 3.41719 0.758298 5.25469C0.285532 6.59531 0.10766 7.99219 0.0468085 9.40313C0.0374468 9.62813 0.0140426 9.85312 0 10.0781V11.8125C0.032766 12.2063 0.0608511 12.6 0.0982979 12.9938C0.248085 14.5688 0.585106 16.0828 1.40426 17.4609C2.19532 18.7875 3.31404 19.7297 4.74638 20.2922C4.92426 20.3625 4.96638 20.4516 4.9617 20.6344C4.94766 21.1547 4.9383 21.6797 4.97106 22.2C5.01787 23.0531 5.3034 23.7563 6.23021 24H6.88553C7.63915 23.7188 8.13532 23.1234 8.63149 22.5328C8.92638 22.1813 9.2166 21.8203 9.49745 21.4594C9.60043 21.3281 9.7034 21.2906 9.87191 21.3C12.1 21.4219 14.3094 21.3281 16.4438 20.5781C18.1757 19.9688 19.6268 18.9844 20.6145 17.3953C21.2698 16.3453 21.6302 15.1922 21.766 13.9734C21.8549 13.1813 21.9017 12.3891 21.9672 11.5969C21.9719 11.5266 21.9953 11.4609 22.0047 11.3953V9.56719C21.9672 9.21563 21.9391 8.86406 21.9064 8.51719ZM20.3617 12.9469C20.2634 14.0391 20.1043 15.1125 19.6455 16.125C18.9106 17.7516 17.6468 18.7266 15.9383 19.1766C13.8694 19.725 11.7723 19.95 9.64255 19.7672C9.1417 19.725 8.8234 19.875 8.52383 20.2547C7.97617 20.9438 7.38638 21.6047 6.81532 22.275C6.74511 22.3594 6.67489 22.4391 6.6 22.5187C6.57192 22.5094 6.54383 22.5 6.51574 22.4906C6.49702 22.3172 6.45957 22.1391 6.45957 21.9656C6.45957 21.3328 6.45957 20.7 6.47362 20.0672C6.48766 19.4766 6.33787 19.2469 5.78085 19.0687C3.73064 18.4078 2.53702 16.95 1.96596 14.925C1.64766 13.8047 1.54 12.6609 1.53532 11.5031C1.52596 10.0172 1.53064 8.53594 1.82553 7.07344C2.07362 5.84062 2.48553 4.68281 3.34681 3.73594C3.89915 3.12656 4.60596 2.74687 5.35489 2.44219C6.54383 1.95469 7.79362 1.71563 9.07149 1.58906C10.3587 1.4625 11.6413 1.46719 12.9238 1.59844C14.314 1.74375 15.6715 2.02031 16.9681 2.57812C18.2647 3.13594 19.1447 4.07344 19.6689 5.37656C20.1089 6.47812 20.3196 7.63125 20.4179 8.80781C20.5302 10.1859 20.4834 11.5688 20.3617 12.9469Z" fill="#5081E9"/>
<path d="M16.7153 13.8187C16.0132 13.125 15.2175 12.5484 14.3609 12.0562C14.08 11.8969 13.7711 11.8172 13.4434 11.8453C12.8583 11.8969 12.4698 12.2578 12.1328 12.6937C11.7209 13.2281 11.1732 13.4906 10.6724 13.5094C9.59108 13.5094 8.71108 12.8391 8.37406 11.8828C8.09321 11.0859 8.23363 10.3781 8.8515 9.7828C9.01065 9.6328 9.17916 9.49218 9.34299 9.34686C10.0311 8.7328 10.1621 8.04374 9.73619 7.22811C9.2915 6.37968 8.73916 5.60624 8.11193 4.88905C7.74214 4.46718 7.2647 4.32655 6.71704 4.43905C5.95874 4.59374 5.39704 5.04374 4.92427 5.62968C4.55916 6.07968 4.3064 6.58124 4.25491 7.17186C4.21746 7.57968 4.36725 7.93124 4.54044 8.28749C5.09278 9.40312 5.56555 10.5656 6.19278 11.6344C7.87321 14.5078 10.5132 16.2328 13.4902 17.5125C13.9349 17.7 14.4077 17.7891 14.8804 17.6203C16.0179 17.2125 16.7528 16.4109 17.0758 15.2531C17.2162 14.7234 17.1179 14.2172 16.7153 13.8187ZM7.61576 8.89218C7.35831 9.19687 7.14299 9.53436 6.89491 9.87655C6.7264 9.52499 6.54384 9.15936 6.38001 8.78436C6.18342 8.34374 5.98214 7.90311 5.82299 7.44843C5.7715 7.29843 5.79023 7.08749 5.86044 6.94218C6.09448 6.45468 6.52044 6.15468 7.03533 5.85936C7.48001 6.53436 7.92001 7.1953 8.35533 7.85155C8.48172 8.03905 8.42087 8.18437 8.26172 8.3203C8.04172 8.5078 7.80299 8.67655 7.61576 8.89218ZM15.5264 15.0984C15.2643 15.4125 15.0021 15.7312 14.7119 16.0219C14.5387 16.1953 14.3 16.2234 14.0613 16.1109C13.2515 15.7219 12.437 15.3375 11.6226 14.9531C11.6319 14.9203 11.6413 14.8922 11.646 14.8594C11.7724 14.8031 11.8987 14.7516 12.0251 14.6953C12.5447 14.4656 12.966 14.1234 13.2796 13.6453C13.4902 13.3172 13.5136 13.2984 13.8366 13.5187C14.389 13.8984 14.9132 14.3109 15.4515 14.7047C15.6107 14.8172 15.6481 14.9578 15.5264 15.0984Z" fill="#5081E9"/>
<path d="M17.2957 10.2234C17.2676 10.575 17.2583 10.8656 17.2208 11.1469C17.1693 11.5594 16.8323 11.8313 16.4438 11.7937C16.0038 11.7469 15.6949 11.4422 15.7323 11.0203C15.8025 10.3219 15.7698 9.63281 15.6059 8.95312C15.1613 7.09219 13.9255 6.01875 12.1327 5.54062C11.6553 5.41406 11.1545 5.37187 10.6583 5.33437C10.1808 5.29687 9.8719 5.01562 9.87658 4.55625C9.88126 4.11094 10.1902 3.80156 10.663 3.81094C11.7864 3.825 12.8583 4.06875 13.86 4.57031C15.7417 5.51719 16.8417 7.04531 17.1693 9.12656C17.2396 9.50625 17.263 9.89531 17.2957 10.2234Z" fill="#5081E9"/>
<path d="M13.6073 10.4765C13.2234 10.5656 12.849 10.3406 12.7413 9.95152C12.7085 9.83902 12.6945 9.72184 12.657 9.61402C12.4558 8.99528 12.0111 8.67184 11.3885 8.54528C10.8455 8.43278 10.6115 7.92184 10.8643 7.43434C11 7.17184 11.2247 7.05934 11.5664 7.04059C12.6477 7.2234 13.509 7.79059 13.9864 8.86403C14.0941 9.10309 14.1549 9.36559 14.2111 9.6234C14.2953 10.0265 14.0426 10.3734 13.6073 10.4765Z" fill="#5081E9"/>
</g>
<defs>
<clipPath id="clip0">
<rect width="22" height="24" fill="white"/>
</clipPath>
</defs>
</svg>
